<?xml version="1.0" encoding="UTF-8"?>
<svg id="Layer_2" data-name="Layer 2" xmlns="http://www.w3.org/2000/svg" viewBox="0 0 529.5 514.2">
  <defs>
    <style>
      .cls-1 {
        fill: #fff;
      }

      .cls-2 {
        fill: #a9ffff;
        font-family: FrederickatheGreat-Regular, 'Fredericka the Great';
        font-size: 266.56px;
      }
    </style>
  </defs>
  <g id="Layer_1-2" data-name="Layer 1">
    <g>
      <path class="cls-1" d="M149.73,396.46c-.49-.33-1.02-.53-1.59-.61-.57-.08-.94,.2-1.1,.85,.82,.33,1.18,.82,1.1,1.47-.08,.65,.04,1.14,.37,1.46,.16-.65,.49-1.14,.97-1.46,.49-.33,.57-.9,.25-1.71Zm-4.52,2.81c-.73-.57-.94-.29-.61,.85,.33-.32,.61-.16,.86,.49,.24,.65,.93,.49,2.07-.49-.81,0-1.59-.28-2.32-.85Zm1.22-6.72c-.08-.49-1.02-.57-2.8-.24,.81,.16,1.3,.49,1.46,.97,.16,.49,.65,.74,1.46,.74,0-.49-.04-.98-.12-1.47Zm-.12-3.54c-.33-.4-1.3-.36-2.93,.12,.33,.66,.98,1.19,1.95,1.59,.98,.41,1.79,.21,2.45-.61-.66-.32-1.14-.69-1.47-1.1Zm-1.22,11.6c-1.3,0-2.24,.61-2.81,1.83-.57,1.22-1.02,1.91-1.34,2.07,.32,0,.57,.09,.73,.25s.65-.49,1.47-1.95c.81,.16,1.38-.08,1.71-.74,.32-.65,.4-1.13,.24-1.46Zm-3.42,20.14c-.33,.41-.65,.77-.97,1.1,.48-.16,.97-.33,1.46-.49,.49-.16,.89-.49,1.22-.98-.82-.16-1.38-.03-1.71,.37Zm1.22-35.89c-.16,.25-.97,1.02-2.44,2.32,.65-.32,1.22-.32,1.71,0,.49,.33,.98-.4,1.47-2.2-.33-.32-.58-.36-.74-.12Zm2.81-6.96c-.57-.16-1.75-.24-3.54-.24-.65,.65-1.34,1.18-2.07,1.59-.74,.4-1.51,.77-2.32,1.09-1.31-.64-2.45-.24-3.42,1.23,1.46-.17,2.52,.08,3.17,.73,.65,.65,1.71,.81,3.18,.49,.48,0,.77-.21,.85-.61,.08-.41,.61-1.18,1.59-2.32,.81,.16,1.42,.12,1.83-.13,.4-.24,.93-.44,1.58-.61,0-.64-.28-1.05-.85-1.22Zm-15.75,0c-.32,.33-.81,.33-1.46,0-.65-.32-1.14-.08-1.47,.74,1.79,.97,3.42,1.3,4.89,.97l-1.96-1.71Zm-3.41-13.42c.48-.16,.85-.16,1.09,0,.25,.16,1.02-.08,2.32-.74-1.63-.32-2.77-.08-3.41,.74Zm.1,16.64c.16,0,.33,.03,.51,.08,.89,.24,1.5-.04,1.83-.86-.94,.17-1.72,.43-2.34,.78Zm-1.33,1.18c.31-.47,.75-.86,1.33-1.18-.62,0-1.07,.4-1.33,1.18Zm-1.46-17.58c-.16-1.3,.28-2.08,1.34-2.32,1.06-.24,1.99-.12,2.81,.37l-.24-1.47c-.82,.33-1.31,.41-1.47,.25-.16-.16-.65-.33-1.46-.49-.49,.16-.86,.49-1.1,.97-.25,.49-.61,.9-1.1,1.22-1.31-.48-2.16-.44-2.56,.13-.41,.57-.53,1.5-.37,2.8,.32,.33,.57,.45,.73,.37,.16-.08,.73,.45,1.71,1.59-.98-.16-1.71-.33-2.2-.49-.48-.16-1.3-.89-2.44-2.2-.16,.49-.2,.94-.12,1.34,.08,.41,.28,1.02,.61,1.84-.49,.32-1.1,.53-1.83,.61s-1.26,.36-1.59,.85c.82,.33,1.38,.69,1.71,1.1,.33,.41,.89,.61,1.71,.61,.32-.98,1.3-1.95,2.93-2.93,.65,.16,1.18,0,1.59-.49,.4-.49,.61-.89,.61-1.22,.65,0,1.13,.08,1.46,.24,.33,.17,.89,.17,1.71,0,0-.64-.82-1.54-2.44-2.68Zm25.88,31.74c-.49-.33-1.02-.53-1.59-.61-.57-.08-.94,.2-1.1,.85,.82,.33,1.18,.82,1.1,1.47-.08,.65,.04,1.14,.37,1.46,.16-.65,.49-1.14,.97-1.46,.49-.33,.57-.9,.25-1.71Zm-6.35-7.33c.33,.66,.98,1.19,1.95,1.59,.98,.41,1.79,.21,2.45-.61-.66-.32-1.14-.69-1.47-1.1-.33-.4-1.3-.36-2.93,.12Zm.25,3.18c.81,.16,1.3,.49,1.46,.97,.16,.49,.65,.74,1.46,.74,0-.49-.04-.98-.12-1.47-.08-.49-1.02-.57-2.8-.24Zm.97,7.81c.33-.32,.61-.16,.86,.49,.24,.65,.93,.49,2.07-.49-.81,0-1.59-.28-2.32-.85-.73-.57-.94-.29-.61,.85Zm-3.05-17.94c.08-.41,.61-1.18,1.59-2.32,.81,.16,1.42,.12,1.83-.13,.4-.24,.93-.44,1.58-.61,0-.64-.28-1.05-.85-1.22-.57-.16-1.75-.24-3.54-.24-.65,.65-1.34,1.18-2.07,1.59-.74,.4-1.51,.77-2.32,1.09-1.31-.64-2.45-.24-3.42,1.23,1.46-.17,2.52,.08,3.17,.73,.65,.65,1.71,.81,3.18,.49,.48,0,.77-.21,.85-.61Zm.73,20.26c-.57,1.22-1.02,1.91-1.34,2.07,.32,0,.57,.09,.73,.25s.65-.49,1.47-1.95c.81,.16,1.38-.08,1.71-.74,.32-.65,.4-1.13,.24-1.46-1.3,0-2.24,.61-2.81,1.83Zm-.12-15.26c.49,.33,.98-.4,1.47-2.2-.33-.32-.58-.36-.74-.12-.16,.25-.97,1.02-2.44,2.32,.65-.32,1.22-.32,1.71,0Zm-.49,33.57c-.33,.41-.65,.77-.97,1.1,.48-.16,.97-.33,1.46-.49,.49-.16,.89-.49,1.22-.98-.82-.16-1.38-.03-1.71,.37Zm-13.18-42.85c-.65-.32-1.14-.08-1.47,.74,1.79,.97,3.42,1.3,4.89,.97l-1.96-1.71c-.32,.33-.81,.33-1.46,0Zm-.86-13.42c.25,.16,1.02-.08,2.32-.74-1.63-.32-2.77-.08-3.41,.74,.48-.16,.85-.16,1.09,0Zm-3.78,.24c-.16-1.3,.28-2.08,1.34-2.32,1.06-.24,1.99-.12,2.81,.37l-.24-1.47c-.82,.33-1.31,.41-1.47,.25-.16-.16-.65-.33-1.46-.49-.49,.16-.86,.49-1.1,.97-.25,.49-.61,.9-1.1,1.22-1.31-.48-2.16-.44-2.56,.13-.41,.57-.53,1.5-.37,2.8,.32,.33,.57,.45,.73,.37,.16-.08,.73,.45,1.71,1.59-.98-.16-1.71-.33-2.2-.49-.48-.16-1.3-.89-2.44-2.2-.16,.49-.2,.94-.12,1.34,.08,.41,.28,1.02,.61,1.84-.49,.32-1.1,.53-1.83,.61s-1.26,.36-1.59,.85c.82,.33,1.38,.69,1.71,1.1,.33,.41,.89,.61,1.71,.61,.32-.98,1.3-1.95,2.93-2.93,.65,.16,1.18,0,1.59-.49,.4-.49,.61-.89,.61-1.22,.65,0,1.13,.08,1.46,.24,.33,.17,.89,.17,1.71,0,0-.64-.82-1.54-2.44-2.68Zm3.3,16.48c.89,.24,1.5-.04,1.83-.86-.94,.17-1.72,.43-2.34,.78,.16,0,.33,.03,.51,.08Zm-1.84,1.1c.31-.47,.75-.86,1.33-1.18-.62,0-1.07,.4-1.33,1.18Zm-39.42-34.3c-.41,.08-.7,.45-.86,1.09,.65,0,1.1-.2,1.34-.61,.25-.4,.53-.77,.86-1.09-.49,.32-.94,.53-1.34,.61Zm-4.4,.73c-.73,.24-1.34,.69-1.83,1.34,.81-.32,1.5-.49,2.08-.49s1.17-.16,1.83-.49c-.66-.48-1.35-.61-2.08-.36Zm-2.93,2.44c-.73,.41-1.18,1.18-1.34,2.32,.65-.16,1.1-.57,1.34-1.22,.25-.65,.77-.81,1.59-.49-.33-.81-.86-1.01-1.59-.61Zm7.33-3.17c-.41,.08-.7,.45-.86,1.09,.65,0,1.1-.2,1.34-.61,.25-.4,.53-.77,.86-1.09-.49,.32-.94,.53-1.34,.61Zm-4.4,.73c-.73,.24-1.34,.69-1.83,1.34,.81-.32,1.5-.49,2.08-.49s1.17-.16,1.83-.49c-.66-.48-1.35-.61-2.08-.36Zm-2.93,2.44c-.73,.41-1.18,1.18-1.34,2.32,.65-.16,1.1-.57,1.34-1.22,.25-.65,.77-.81,1.59-.49-.33-.81-.86-1.01-1.59-.61Zm-37.47-7.69c.81,.33,1.34,.29,1.58-.12,.25-.41,.61-.61,1.1-.61v-1.47c-1.63,0-2.52,.73-2.68,2.2Zm1.46-6.84c-.16,.33-.37,.66-.61,.98-.24,.33-.77,.9-1.59,1.71,1.14,0,1.87-.28,2.2-.86,.33-.56,.98-.85,1.95-.85l-1.95-.98Zm-3.91-6.83c.33,0,1.31-.16,2.93-.49,0-.81-.97-.65-2.93,.49Zm-3.41,2.19c-.98,.66-1.96,1.15-2.93,1.47,.97,.16,2.03-.04,3.17-.61s1.87-1.26,2.2-2.08c-.65,.17-1.47,.58-2.44,1.22Zm-3.67,3.91c-.32,.33-.73,.65-1.22,.98,.49-.33,1.06-.53,1.71-.61,.65-.08,1.06-.45,1.22-1.1-.81,.16-1.38,.41-1.71,.73Zm.49-10.86c-.81-.08-1.38,.28-1.71,1.1,.49,.16,1.18,.2,2.08,.12,.89-.08,1.34-.45,1.34-1.1-.33,0-.89-.04-1.71-.12Zm10.5,13.42c.33-.56,.98-.85,1.95-.85l-1.95-.98c-.16,.33-.37,.66-.61,.98-.24,.33-.77,.9-1.59,1.71,1.14,0,1.87-.28,2.2-.86Zm-1.46,5.01c.81,.33,1.34,.29,1.58-.12,.25-.41,.61-.61,1.1-.61v-1.47c-1.63,0-2.52,.73-2.68,2.2Zm-2.45-13.67c.33,0,1.31-.16,2.93-.49,0-.81-.97-.65-2.93,.49Zm-6.34,3.66c.97,.16,2.03-.04,3.17-.61s1.87-1.26,2.2-2.08c-.65,.17-1.47,.58-2.44,1.22-.98,.66-1.96,1.15-2.93,1.47Zm.12-7.2c.89-.08,1.34-.45,1.34-1.1-.33,0-.89-.04-1.71-.12-.81-.08-1.38,.28-1.71,1.1,.49,.16,1.18,.2,2.08,.12Zm-2.08,10.62c.49-.33,1.06-.53,1.71-.61,.65-.08,1.06-.45,1.22-1.1-.81,.16-1.38,.41-1.71,.73-.32,.33-.73,.65-1.22,.98Zm123.3,64.94c0-1.3,.24-2.36,.73-3.18,0-2.27-.17-4.1-.49-5.49-.33-1.38-.65-3.62-.98-6.71,0-.49-.08-.98-.24-1.47-.17-.49,0-1.22,.49-2.19-1.47-.33-2.24-1.35-2.32-3.06-.09-1.7-.45-2.96-1.1-3.78-.49-2.28-1.14-4.31-1.95-6.1-.82-1.79-1.71-3.58-2.69-5.37,0-2.61-.94-4.6-2.81-5.99-1.87-1.38-3.38-3.29-4.51-5.73-1.31-.49-2.53-.98-3.67-1.47s-2.03-1.3-2.68-2.44c.32-.32,.69-.53,1.1-.61,.4-.08,.77-1.26,1.1-3.54-.82,.98-1.47,1.02-1.96,.12-.49-.89-1.14-1.18-1.95-.85-.33,.81-.21,1.06,.37,.73,.56-.32,.44,.41-.37,2.2-.16-.65-.49-.82-.98-.49-.49,.33-.49-.41,0-2.2-.65-.16-1.02,0-1.1,.49-.08,.49-.93,.41-2.56-.24-2.28,.65-4.84,.61-7.69-.13-2.85-.73-5.17-1.66-6.96-2.8-1.95-.16-4.43-.53-7.44-1.1-3.02-.57-5.83-1.02-8.43-1.35-1.3,0-2.52-.2-3.66-.61-1.14-.4-2.32-.85-3.54-1.34-1.22-.49-2.48-.89-3.78-1.22-1.31-.32-2.77-.49-4.4-.49-3.58-1.62-7.04-3.17-10.37-4.64-3.34-1.46-6.39-3.33-9.16-5.61-1.63-.16-2.89-.61-3.78-1.34-.9-.74-1.83-2.16-2.81-4.28-1.31-.48-2.61-.81-3.91-.97-1.3-.16-2.11-.9-2.44-2.2,.33-.32,.69-.65,1.1-.98,.4-.32,.69-.89,.85-1.71-1.46-.32-2.76-.81-3.9-1.46-1.14-.65-1.87-1.71-2.2-3.17-.98,0-1.71-.57-2.2-1.71-.48-1.14-.4-1.87,.25-2.2-.82-1.14-1.31-2.4-1.47-3.79-.16-1.38-.49-2.72-.97-4.02,.81-.33,1.46-.98,1.95-1.96-.33-.48-.21-1.05,.37-1.71,.56-.64,.12-1.38-1.35-2.19,0-.65,.08-1.18,.25-1.59,.16-.4,.24-.93,.24-1.59,1.14-.16,2.03-.56,2.69-1.22,.65-.65,1.26-1.38,1.83-2.19,.57-.82,1.1-1.55,1.58-2.2,.49-.65,1.23-.98,2.2-.98,.33-.16,.37-.36,.12-.61s.45-.77,2.08-1.59c.81,.33,1.71,.33,2.68,0,1.14,.17,2.04,.13,2.69-.12,.65-.24,.32-1.18-.98-2.81,.82-.48,1.67-.93,2.57-1.34,.89-.4,1.99-.93,3.29-1.59,1.96,.33,4.11,.37,6.47,.13,2.36-.25,4.44-.69,6.23-1.35,2.28,.49,4.43,1.02,6.47,1.59,2.03,.57,4.19,.94,6.47,1.1,.97,.33,1.79,.69,2.44,1.1,.65,.41,1.34,.81,2.07,1.22,.74,.41,1.51,.73,2.32,.98,.82,.24,2.12,.77,3.91,1.58,2.11,.82,3.91,1.88,5.37,3.18,1.47,1.3,3.34,2.36,5.62,3.17,.32,1.63,1.26,3.01,2.8,4.15,1.55,1.14,2.32,3.01,2.32,5.62,.65,.32,1.22,.81,1.71,1.46,.49,.65,1.14,1.14,1.96,1.47-.33,.32-.25,.69,.24,1.09,.49,.41,.98,.78,1.46,1.1,.33,.49,.57,.9,.74,1.22,.16,.33,0,.9-.49,1.71,.49,.82,1.06,1.06,1.71,.73,.65-.32,1.3-.4,1.95-.24,0,1.47,.89,2.77,2.69,3.91,.32,.81,.36,1.58,.12,2.32-.25,.73-.29,1.67-.12,2.8,2.27,1.8,4.15,3.91,5.61,6.35,1.47,2.44,2.6,4.97,3.42,7.57,1.62,.33,2.89,0,3.78-.98,.9-.97,1.51-1.95,1.83-2.93,.49-2.44,.29-5.2-.61-8.3-.89-3.09-.85-6.75,.13-10.98-.98-1.3-1.51-2.81-1.59-4.52-.08-1.71-.04-3.38,.12-5-1.14-2.12-1.59-3.99-1.34-5.62,.24-1.63,.04-3.91-.61-6.84,.32-.81,.57-1.95,.73-3.41,.16-1.47,.08-2.61-.24-3.42,.65-.49,1.13-1.26,1.46-2.32s.41-2.16,.25-3.3c-.17-1.13-.61-2.03-1.35-2.68-.73-.65-1.83-.9-3.29-.74-.33,1.8-.98,3.34-1.96,4.64-.97,1.31-1.3,2.77-.97,4.4-1.31,1.3-2.77,2.81-4.4,4.51-1.63,1.71-3.66,2.9-6.1,3.54-.98,.33-2.08,.58-3.3,.74-1.22,.16-2.4,.2-3.54,.12-1.14-.08-2.11-.37-2.93-.86-.81-.48-1.3-1.3-1.46-2.44-.98-.81-2.12-1.38-3.42-1.71-1.3-.32-2.6-.73-3.91-1.22-1.14-2.76-3.17-4.23-6.1-4.39-1.46-2.11-3.29-3.21-5.49-3.3-2.2-.08-4.68-.52-7.45-1.34-.33-1.14-1.14-1.71-2.44-1.71h-3.66c-2.93,0-5.98,.21-9.16,.61-3.17,.41-6.22,.98-9.15,1.71-2.93,.73-5.62,1.71-8.06,2.93-2.44,1.22-4.48,2.73-6.1,4.52-1.47,.33-2.44,.94-2.93,1.83-.49,.89-2.04,1.1-4.64,.61-.16,.98-.53,1.79-1.1,2.44-.57,.65-1.18,1.26-1.83,1.83-.65,.57-1.22,1.22-1.71,1.95-.49,.74-.73,1.67-.73,2.81-1.14,1.95-2.16,4.11-3.05,6.47-.9,2.36-1.75,4.68-2.57,6.96-1.79,2.28-3.05,5.21-3.78,8.79-.73,3.58-1.1,7-1.1,10.25-.65,1.31-1.46,2.12-2.44,2.44,0,1.14-.09,1.88-.25,2.2-.16,.33,.08,1.47,.74,3.42,.65,0,.73,.98,.24,2.93,.33,.16,.77,.2,1.34,.12s1.18,.04,1.83,.37c-.48,.33-.61,.65-.36,.97,.24,.33-.12,.82-1.1,1.47,0,.49,.32,.73,.98,.73s.08,.65-1.71,1.95c.65,.33,1.13,.33,1.46,0,.33-.32,.98-.56,1.96-.73,0,1.31,.16,2.44,.48,3.42,.33,.98,.98,2.2,1.96,3.66,1.13,1.63,1.22,3.14,.24,4.52s-2.12,2.32-3.42,2.81c.33,.65,.41,1.18,.25,1.58-.17,.41-.33,.94-.49,1.59,.65,.16,1.06,.21,1.22,.12,.16-.08,.65-.12,1.46-.12,.33-.81,1.02-1.38,2.08-1.71,1.06-.32,2.08-.65,3.05-.98,.65,1.31,.73,2.41,.25,3.3-.49,.9-1.22,1.67-2.2,2.32-.98,.65-2,1.26-3.05,1.83-1.06,.57-1.83,1.26-2.32,2.08,.16,1.3,.97,2.19,2.44,2.68,1.14-.16,2.28-.61,3.42-1.34,1.13-.73,2.27-1.42,3.41-2.08,1.14-.65,2.24-1.01,3.3-1.1,1.06-.08,1.91,1.27,2.56,4.03-1.3-.81-2.32-.77-3.05,.12-.73,.9-1.42,2.49-2.07,4.77,1.3,.81,2.64,.81,4.03,0,1.38-.82,2.72-1.63,4.02-2.45,1.3-.81,2.57-1.34,3.79-1.58,1.22-.25,2.23,1.18,3.05,4.27,.81-.32,1.42-.37,1.83-.12,.41,.24,.77,.53,1.1,.85,.65-.16,1.14-.4,1.46-.73,.33-.32,.82-.65,1.47-.98l2.93,3.91c.49,.33,.93,.65,1.34,.98,.41,.32,.86,.65,1.34,.97,1.14-.16,2.04-.52,2.69-1.1,.65-.56,1.46-.93,2.44-1.09,1.3-.16,2.52,.16,3.66,.97,1.14,.82,2.2,1.14,3.18,.98,2.27,.33,4.23,.94,5.86,1.83,1.62,.9,3.57,1.34,5.86,1.34,.32,.65,.81,1.18,1.46,1.59,.65,.41,1.22,.85,1.71,1.34,1.3-.49,2.28-.52,2.93-.12,.65,.41,1.54,.45,2.69,.12,.48,.49,.81,1.02,.97,1.59,.16,.57,.57,.94,1.22,1.1-.16,0-.28,.08-.36,.24-.09,.17-1.02,.33-2.81,.49-.98,.33-1.67,.65-2.08,.98-.4,.32-1.1,.57-2.07,.73-.33,1.3-.49,2.36-.49,3.17,1.3,.98,2.69,1.22,4.15,.74,1.47-.49,2.36-1.63,2.69-3.42,.64,.33,1.3,.33,1.95,0,.65-.33,1.06-.74,1.22-1.22,.81,0,1.62-.37,2.44-1.1,.81-.73,1.87-1.1,3.17-1.1,.16,.82,.57,1.34,1.23,1.59,.64,.24,.89,.85,.73,1.83-.82-.33-1.63-.33-2.44,0-.82,.33-1.06,1.14-.74,2.44,.82,.65,1.79,1.06,2.93,1.22,1.14,.16,2.2,.08,3.18-.24,1.13-.33,2.11-.7,2.93-1.1,.81-.41,1.46,.2,1.95,1.83-.82,.33-1.51,.85-2.07,1.58-.58,.74-.98,1.55-1.23,2.45-.24,.89-.2,1.67,.13,2.32,.32,.65,1.54,.73,3.66,.24,1.3,.16,2.56-.16,3.78-.98,1.22-.81,2.48-1.3,3.79-1.46,.32,.33,.81,.61,1.46,.85,.65,.25,.81,.61,.49,1.1-.33,0-.53-.24-.61-.73-.08-.49-1.1-.41-3.05,.24-.49,.33-.49,.61,0,.86,.49,.24,.08,.77-1.22,1.58-1.63,.98-2.04,2.16-1.22,3.54,.81,1.39,2.03,1.92,3.66,1.59,.65-.16,1.38-.57,2.2-1.22,.81-.65,1.62-1.26,2.44-1.83,.81-.57,1.58-.89,2.32-.98,.73-.08,1.34,.45,1.83,1.59-.17,.65-.33,1.18-.49,1.59-.16,.4-.33,1.02-.49,1.83-.82-.16-1.38-.12-1.71,.12-.33,.24-.65,.53-.97,.85,.32,.33,.36,.66,.12,.98-.25,.33,.12,.98,1.1,1.95,1.13-.48,2.23-.85,3.29-1.09,1.06-.25,1.83-.7,2.32-1.35,.98,.65,1.5,1.75,1.59,3.3,.08,1.55-.12,2.65-.61,3.29-.49,.82-.49,1.43,0,1.84,.49,.4,.24,1.09-.73,2.07-1.14,.49-1.8,1.14-1.96,1.95,.65,0,1.22,.9,1.71,2.69,1.3,.16,2.28,0,2.93-.49,.65-.49,1.3-1.06,1.95-1.71,0,9.44-2.44,16.12-7.32,20.02-.16,1.14-.16,2.04,0,2.69,.16,.65,.32,1.3,.49,1.95-4.24,2.28-8.91,4.48-14.04,6.59-5.13,2.12-10.7,3.34-16.72,3.66-1.47,0-2.97-.12-4.52-.36-1.55-.25-3.05-.45-4.52-.61-2.6-.33-5-.98-7.2-1.96-2.2-.97-4.44-1.62-6.71-1.95-2.28-.32-4.15-1.18-5.62-2.56-1.46-1.38-3.01-2.57-4.64-3.54-.81-.49-1.63-.81-2.44-.98-.81-.16-1.71-.73-2.68-1.71-1.8-2.44-3.71-4.64-5.74-6.59-2.04-1.95-3.54-4.39-4.52-7.32,.49-.49,.98-1.22,1.47-2.2,.49-.98,.81-1.91,.97-2.81,.16-.89-.08-1.62-.73-2.2-.65-.56-2.28-.85-4.88-.85-1.14-1.79-2.04-3.91-2.69-6.35s-1.38-4.88-2.19-7.32c-.66-1.79-.98-3.05-.98-3.79s.16-1.83,.49-3.29c.49-.16,.85-.45,1.1-.86,.24-.4-.05-1.34-.86-2.8-.49,.16-.85,.4-1.1,.73-.24,.33-.77,.41-1.58,.24-.33-.81-.58-1.54-.74-2.2-.16-.64-.08-1.86,.25-3.66-.33-.65-.37-1.13-.12-1.46,.24-.33,.2-.73-.13-1.22-1.3-.49-2.16-1.43-2.56-2.81-.41-1.38-.77-2.81-1.1-4.27-.33-1.47-.81-2.69-1.46-3.66-.66-.98-1.8-1.23-3.42-.74-.16,1.8-.04,3.26,.37,4.4,.4,1.14,.44,2.52,.12,4.15-.33,1.46-.57,3.09-.73,4.88-.17,1.79-.66,3.09-1.47,3.91,.32,.81,.37,1.55,.12,2.19-.24,.66-.53,1.31-.85,1.96-.33,.65-.7,1.34-1.1,2.07-.41,.73-.78,1.67-1.1,2.81-.49,.33-.69,.94-.61,1.83,.08,.9,.69,1.26,1.83,1.1,1.3,1.63,1.75,3.34,1.34,5.13-.4,1.79-.45,3.82-.12,6.1-.49,0-.89,.21-1.22,.61-.33,.41-.82,.61-1.46,.61-.03,.1-.06,.2-.08,.3-.24,1-.17,1.8,.2,2.39,.4,.65,.85,1.22,1.34,1.71,.49,.48,.94,1.06,1.34,1.7,.41,.66,.53,1.47,.37,2.45-1.3,.81-2.16,2.36-2.56,4.63-.41,2.29-.53,4.07-.37,5.38,.49,.32,1.02,.48,1.59,.48s1.1,.17,1.58,.49c-.16,.82-.12,1.51,.13,2.08,.24,.57,.2,1.58-.13,3.05,.48,.96,.61,2.03,.38,3.22,1.88,1.89,3.78,3.78,5.7,5.66,.21-.37,.38-.76,.52-1.19,.64-2.03,1.38-3.86,2.19-5.49,.82,.16,1.3,.04,1.47-.37,.16-.4,.65-.53,1.46-.37,.49-.97,1.3-1.95,2.44-2.93,1.14-.97,2.4-1.74,3.79-2.32,.98-.4,1.96-.64,2.94-.71,.4-.04,.81-.04,1.21-.02,1.38,.09,2.72,.53,4.03,1.35,.49,1.79,1.66,3.25,3.54,4.39,1.87,1.14,3.7,2.2,5.49,3.17,.81,.98,1.63,1.83,2.44,2.57,.35,.32,.69,.69,1.02,1.12,.42,.55,.81,1.2,1.18,1.93,.84,.14,1.68,.31,2.5,.5,2.04,.46,4.01,1.07,5.92,1.82,2.69,1.06,5.9,1.99,9.65,2.81,1.78,0,3.78,.12,5.98,.36,2.19,.25,4.11,.69,5.73,1.34,1.47-.81,3.5-1.18,6.11-1.09,2.6,.08,4.55-.45,5.86-1.59,1.3,.65,2.64,.61,4.03-.12,1.38-.74,2.72-1.51,4.02-2.32,.33,.81,.9,.97,1.71,.49,.82-.49,1.3-.98,1.47-1.47,.49,.33,.93,.41,1.34,.25,.4-.16,.86-.08,1.34,.24,.33-1.47,1.18-2.4,2.57-2.81,1.38-.4,2.72-.93,4.03-1.59-.33-.97,.12-1.58,1.34-1.83,1.22-.24,2.15-.93,2.81-2.07,.97,.33,1.78,.12,2.44-.61,.65-.73,1.38-1.26,2.19-1.59,.33-.98,.9-1.71,1.71-2.2,.82-.48,1.63-.97,2.44-1.46,.82-.49,1.55-1.02,2.2-1.59s.73-1.5,.25-2.81c.48-.16,.97-.36,1.46-.61,.49-.24,1.06-.2,1.71,.13,.49-.98,.89-1.71,1.22-2.2,.32-.49,.89-.89,1.71-1.22-.49-1.3-.49-2.48,0-3.54s.4-1.99-.24-2.81c.81-1.3,1.38-2.68,1.7-4.15,.33-1.46,.57-2.93,.74-4.39,.65-1.14,.97-2.4,.97-3.79s-.08-2.81-.24-4.27c-.16-1.47-.24-2.85-.24-4.15Zm-17.58-86.92c.65,1.96,.16,3.34-1.47,4.16-1.46-.82-2.2-2.24-2.2-4.28s.65-3.54,1.96-4.51c.49,1.14,1.05,2.68,1.71,4.63Zm-1.71-16.6c.32,.66,.36,1.31,.12,1.96-.24,.65-.21,1.38,.12,2.19-.81,.17-1.67,.37-2.56,.61-.9,.25-1.51-.69-1.83-2.8,1.13,.16,1.79-.16,1.95-.98,.16-.81,.89-1.14,2.2-.98Zm-4.52-7.44c.73-.41,1.83-1.1,3.3-2.08,0,1.31,.24,2.69,.73,4.15,.49,1.47,0,2.12-1.47,1.96-.81,.48-1.38,1.09-1.7,1.83-.33,.73-1.06,1.09-2.2,1.09,.32-1.13,.57-2.23,.73-3.29s-.24-1.99-1.22-2.81c.49-.16,1.1-.44,1.83-.85Zm-13.79-1.35c1.13,.17,1.99,.13,2.56-.12,.57-.24,1.26-.36,2.08-.36-.33,.81-.86,1.38-1.59,1.7-.73,.33-1.34,.74-1.83,1.23,0-.49-.29-.9-.86-1.23-.57-.32-.69-.73-.36-1.22Zm3.42,107.67c-.49,.33-.9,.65-1.23,.98-.48-.33-.45-.69,.13-1.1,.57-.41,1.18-.94,1.83-1.59,0,.82-.25,1.39-.73,1.71Zm-72.27,31.98c.32,.65,.65,1.39,.98,2.2-.49,0-.9,.12-1.22,.37-.33,.24-1.39,.28-3.18,.12,.33-1.14,.81-2.44,1.47-3.91,.97,.17,1.62,.57,1.95,1.22Zm-11.23-27.1l-2.44,.74c.49-.82,.28-1.35-.61-1.59-.9-.25-1.1-.94-.61-2.08,.32-.16,.49-.08,.49,.25s.73,.08,2.19-.74c0,.82,.08,1.39,.25,1.71,.16,.33,.4,.9,.73,1.71Zm-2.93-7.93c1.14-.73,1.79-.12,1.95,1.83-.65-.32-.97-.24-.97,.24s-.98,.74-2.93,.74c.16-1.14,.81-2.08,1.95-2.81Zm-2.08,11.47c-.08,.58,.37,1.1,1.35,1.59-.82,0-1.47-.73-1.96-2.2,.49-.16,.69,.04,.61,.61Zm8.43,25.52c0,.81-.17,1.38-.49,1.7s-.7,.66-1.1,.98c-.41,.33-.77,.73-1.1,1.22-.33,.49-.49,1.14-.49,1.96-.81,.32-1.38,1.06-1.71,2.19-.32,1.14-1.14,1.63-2.44,1.47,0-1.79-.12-3.38-.36-4.76-.25-1.38-.13-2.89,.36-4.52,.49,.16,1.38-.49,2.69-1.95,0-1.14,.16-2.44,.49-3.91-.66-.32-1.14-.16-1.47,.49-.33,.65-1.3,.49-2.93-.49,.98,0,1.59-.28,1.83-.85,.12-.26,.22-.64,.32-1.13,.11-.57,.2-1.29,.29-2.17,.33-.32,1.06-.98,2.2-1.95,.65-.82,1.14-1.63,1.47-2.44,.32-.82,.48-1.71,.48-2.69-.32,.33-.77,.49-1.34,.49s-1.43,.49-2.56,1.46c-.49,.33-.82,.21-.98-.36-.16-.57-.73-.69-1.71-.37-.16-1.14-.12-2.15,.12-3.05,.25-.89,.69-2.56,1.35-5.01,1.13,0,1.13-.89,0-2.68,.97,.16,1.74,0,2.32-.49,.56-.49,1.1-.98,1.58-1.46,.98,.16,1.38,.81,1.22,1.95-.16,1.14,.16,1.87,.98,2.2-.33,.81-.33,1.62,0,2.44,.32,.81,.24,1.87-.24,3.17-.49,0-.86-.16-1.1-.49-.25-.32-1.02-.4-2.32-.24,.16,.49,.49,.81,.98,.98,.48,.16,.97,.32,1.46,.48,.49,.17,.93,.33,1.34,.49,.41,.17,1.1,.41,2.08,.73,.81,1.14,1.34,2.41,1.58,3.79,.25,1.38,.45,2.73,.62,4.03-.98-.33-1.51-.16-1.59,.48-.09,.66-.78,1.31-2.08,1.96-.33,.16-.81,.12-1.46-.12-.65-.25-1.22-.37-1.71-.37,.16,.49,.32,.82,.49,.98,.16,.16,.73,.73,1.71,1.71,1.13-1.96,3.01-2.2,5.61-.74-1.14,.49-1.91,1.31-2.32,2.44-.16,.45-.37,.86-.63,1.21-.37,.53-.86,.95-1.44,1.24Zm85.08-78.13c.57,0,1.26-.24,2.08-.73,0,.81,.28,1.22,.85,1.22s.85,.41,.85,1.22c-.81,0-1.46,.04-1.95,.12-.49,.09-1.46-.2-2.93-.85,.16-.65,.53-.98,1.1-.98Zm-10.86-4.76c.32-.24,.64-.53,.97-.85,.82-.16,1.26,.04,1.35,.61,.08,.57,.44,.93,1.09,1.09-.65,.33-1.3,.37-1.95,.13-.65-.25-.9,.04-.73,.85-.65-.49-1.47-.98-2.44-1.46,.81,0,1.38-.13,1.71-.37Zm-12.82-2.32c.73-.16,1.26-.65,1.59-1.46,1.3-.16,2.19,0,2.68,.48,.49,.49,1.22,.49,2.2,0-1.14,1.47-2.65,2.29-4.52,2.45-1.87,.16-3.29-.08-4.27-.74,.81-.32,1.59-.57,2.32-.73Zm6.71,5.62c-.49,.16-1.06,.4-1.71,.73-.65,.33-1.14,.33-1.46,0-.33-.81,.04-1.22,1.1-1.22s1.74,.16,2.07,.49Zm-76.66-49.08c1.3-1.3,2.69-2.35,4.15-3.17,.33,.82,.45,1.67,.37,2.56-.09,.9-.21,1.67-.37,2.32-.33,.49-.69,.78-1.1,.86-.4,.08-.85,.08-1.34,0-.49-.08-1.02-.16-1.59-.25-.57-.08-.85,.61-.85,2.08-.49-.33-.94-.41-1.34-.25-.41,.17-.86,.09-1.35-.24,.98-1.3,2.12-2.6,3.42-3.91Zm-5.49,10.26c.24-1.79,1.26-2.93,3.05-3.42,.33-1.14,1.38-2.2,3.17-3.17,.82,.16,1.87-.08,3.18-.74,.65,.33,.61,.74-.12,1.22-.74,.49-1.27,1.55-1.59,3.18-.65,.16-1.14,.45-1.47,.85-.32,.41-.65,.82-.97,1.22-.33,.41-.7,.78-1.1,1.1-.41,.33-1.02,.49-1.83,.49-.49,1.95-1.71,3.34-3.66,4.15,.64-1.46,1.1-3.09,1.34-4.88Zm-1.83,11.47c-.49-.97-.57-1.71-.25-2.2,.33-.48,.82-.89,1.47-1.22,.65-.32,1.38-.61,2.2-.85,.81-.24,1.22-1.18,1.22-2.81,2.11-.81,3.7-2.11,4.76-3.9,1.05-1.79,2.64-3.09,4.76-3.91,.32,.82,.4,1.46,.24,1.95s.41,1.22,1.71,2.2c-.16,1.95-1.02,3.14-2.56,3.54-1.55,.41-2.97,1.02-4.27,1.83-.33,.33-.58,.7-.74,1.1-.16,.41-.81,1.02-1.95,1.83-1.3,.33-2.4,.73-3.3,1.22-.89,.49-1.99,.9-3.29,1.22Zm9.76,27.83c-.16-.48-.36-.89-.61-1.22-.24-.32-.2-.81,.13-1.46,1.3,.16,2.35-.37,3.17-1.59,.81-1.22,1.62-2.56,2.44-4.03-.33,.33-.61,.61-.85,.86-.25,.24-1.1,.94-2.57,2.07-.81-.16-1.3-.08-1.46,.25-.17,.33-.65,0-1.47-.98,1.14-.81,2.52-1.62,4.15-2.44,1.63-.81,2.77-2.52,3.42-5.13-.82,.33-1.55,.82-2.2,1.47-.65,.65-.81,1.38-.48,2.19-3.1,.82-5.7,2.2-7.82,4.15-.32-.32-.45-.85-.36-1.58,.08-.73-.21-1.02-.86-.86,.16-.81,.61-1.38,1.35-1.71,.73-.32,1.09-.97,1.09-1.95,1.14,.17,2.08,0,2.81-.49s1.18-.89,1.34-1.22c.49-.49,1.14-.85,1.96-1.1,.81-.24,1.3-.85,1.46-1.83,.81,0,1.55,.04,2.2,.12,.65,.09,.89-.61,.73-2.07,.81-.16,1.71-.65,2.69-1.47,1.46,.33,2.68,.05,3.66-.85,.98-.89,2.11-1.5,3.42-1.83-.33-.33-.78-.28-1.35,.12-.57,.41-1.58,.86-3.05,1.34-.65-.32-1.22-.56-1.71-.73-.48-.16-.89,.25-1.22,1.22-.32,.33-.94,.65-1.83,.98-.89,.33-1.26,.9-1.1,1.71-.81,0-1.5,.2-2.07,.61-.57,.41-1.1,1.1-1.59,2.07-1.79-.16-3.29,.13-4.51,.86-1.23,.73-2.32,1.67-3.3,2.81-.65-.33-1.22-.62-1.71-.86s-1.06-.61-1.71-1.1c.33-1.62,1.14-3.09,2.44-4.39-.33-.33-.69-.57-1.1-.73-.4-.16-.85-.41-1.34-.74,.49-1.13,.57-1.83,.25-2.07-.33-.25-.49-.86-.49-1.83,1.95,0,2.64-.33,2.07-.98-.57-.65-1.1-1.38-1.58-2.2,1.62,.17,2.52-.32,2.68-1.46,1.3-.16,2.4-.61,3.3-1.34,.89-.74,1.58-1.59,2.07-2.57,1.63,0,3.01-.57,4.15-1.71,1.14-1.13,2.6-1.54,4.4-1.22,.32,.98,.03,1.47-.86,1.47s-1.26,.41-1.1,1.22c-.97-.49-1.58-.33-1.83,.49-.24,.81-.53,1.79-.85,2.93,.65-.49,1.22-.98,1.71-1.47,.49-.49,.89-1.14,1.22-1.95,1.95,0,3.01-.25,3.17-.73,.65,.32,.86,.81,.61,1.46-.24,.65-.28,1.55-.12,2.69-.33,.32-.73,.32-1.22,0-.49-.33-1.22,0-2.2,.97-.49-.32-.97-.28-1.46,.12-.49,.41-1.63,1.1-3.42,2.08,1.14,.98,2.2,.94,3.17-.12,.98-1.06,2.04-1.91,3.18-2.57,.49,.33,.93,.37,1.34,.13,.4-.25,.77-.53,1.1-.86,.32-.32,.69-.57,1.1-.73,.4-.16,.85,0,1.34,.49-.33,.81-.82,1.38-1.47,1.71-.65,.32-1.26,.61-1.83,.85s-1.06,.61-1.46,1.1c-.41,.49-.37,.65,.12,.49,.49-.16,.73-.04,.73,.36s.74-.03,2.2-1.34c.98,0,1.55-.16,1.71-.49,.16-.32,.65-.73,1.46-1.22,.82,.33,1.39,.7,1.71,1.1,.33,.41,.41,1.18,.25,2.32,0,.49,.89,.57,2.68,.24,.65,.82,.61,1.35-.12,1.59-.73,.25-.85,.7-.37,1.34-1.3,.49-2.6,.94-3.9,1.35-1.31,.4-2.77,1.42-4.4,3.05,1.79,.49,3.75,0,5.86-1.47,2.12-1.46,3.99-2.84,5.62-4.15,.81,.33,1.62,.61,2.44,.86,.81,.24,1.55,.45,2.2,.61l-.49,1.46c-.82,.33-1.22,.86-1.22,1.59s-.41,.85-1.22,.37c-2.93,.48-5.37,1.34-7.33,2.56-1.95,1.22-3.9,2.65-5.86,4.27,1.3,.17,2.28-.08,2.93-.73,.65-.65,1.3-1.3,1.96-1.95,.32-.33,.81-.37,1.46-.13,.65,.25,1.38,.29,2.2,.13,0,.48-.21,.85-.61,1.09-.41,.25-.82,.41-1.22,.49-.41,.09-.78,.25-1.1,.49-.33,.25-.9,.7-1.71,1.34-2.12,1.8-4.27,3.42-6.47,4.89-2.2,1.46-5.09,3.17-8.67,5.12Zm24.91-15.62c-.17,.82-.82,1.1-1.96,.85-1.14-.24-1.71-.28-1.71-.12,.16-1.14,.69-1.54,1.59-1.22,.89,.33,1.59,.49,2.08,.49Zm-9.77,17.7c-1.3,.57-2.28,1.43-2.93,2.56-.49-.32-.98-.36-1.46-.12-.49,.24-.98,.49-1.47,.73-.49,.25-1.02,.45-1.59,.61-.57,.17-1.18-.08-1.83-.73-.33-.81-.16-1.26,.49-1.34,.65-.08,.89-.53,.73-1.34,2.77-.82,5.13-1.92,7.08-3.3,1.96-1.38,4.23-3.05,6.84-5.01,.98,.49,2.03,.33,3.17-.48,1.14-.82,2.12-1.63,2.93-2.44,.49-.33,1.18-.49,2.08-.49s1.26-.49,1.1-1.47c-.82-.32-1.39-.24-1.71,.25-.33,.48-.98,.89-1.95,1.22-.33-.16-.7-.33-1.1-.49-.41-.16-1.51,.16-3.3,.98-.33,0-1.22,.24-2.69,.73-.65,.33-1.22,.73-1.7,1.22-.49,.49-1.06,1.3-1.71,2.44-.49,.33-1.02,.53-1.59,.61s-1.18,.29-1.83,.61c-.17,0-.49,.12-.98,.37-.49,.24-1.02,.53-1.58,.85-.58,.33-.98,.65-1.23,.98-.24,.33-.61,.24-1.09-.25,2.11-1.13,3.98-2.6,5.61-4.39,.81-.98,1.87-1.59,3.18-1.83,1.3-.25,2.11-1.1,2.44-2.57,1.13,.17,2.15-.12,3.05-.85,.89-.73,1.59-1.5,2.07-2.32,1.96-.49,4.23-2.03,6.84-4.64,.81-.32,1.46-.28,1.95,.12,.49,.41,1.14,.94,1.96,1.59,.48,0,.85-.04,1.09-.12,.25-.08,1.18,.28,2.81,1.1-.49,.81-1.02,.97-1.58,.49-.58-.49-.94-.16-1.1,.97-1.14-.16-1.96-.04-2.44,.37-.49,.41-1.23,.61-2.2,.61-.17,.33-.17,.61,0,.85,.16,.25,.49,.94,.97,2.08-2.11,.49-3.78,1.43-5,2.81-1.22,1.38-2.32,2.97-3.3,4.76-1.14-.49-2.24-.33-3.29,.49-1.06,.81-2.32,1.3-3.79,1.46,0,.98-.65,1.75-1.95,2.32Zm5.13,2.56c-.98-.65-1.96-.65-2.93,0,.32-.81,.52-1.38,.61-1.71,.08-.32,.69-.64,1.83-.97,.16-.33,.37-.65,.61-.98,.24-.32,.93-.49,2.07-.49-.16,.82-.65,1.43-1.46,1.83-.82,.41-1.06,1.19-.73,2.32Zm13.79,6.59c-.57,.33-1.18,.74-1.83,1.23-.65,.48-1.38,.93-2.2,1.34-.81,.41-1.71,.53-2.68,.36,0-.48-.17-.81-.49-.97-.33-.16-.7-.28-1.1-.37-.41-.08-.73-.2-.98-.36-.24-.16,.37-.74,1.84-1.71,.81,0,1.58-.16,2.31-.49,.74-.33,1.67-1.14,2.81-2.44-.49-.65-.89-1.14-1.22-1.47-.33-.32-.33-1.62,0-3.9-.49,0-.9,.12-1.22,.36-.33,.25-.57,.86-.73,1.83-.33,0-.57-.08-.73-.24-.17-.16-.66,.49-1.47,1.95,.49-.16,.77-.24,.86-.24,.08,0,.69-.25,1.83-.73-.33,.81-.58,1.38-.74,1.7-.16,.33,.08,.74,.74,1.22-.82,.17-1.35,.46-1.59,.86-.24,.41-.77,.53-1.59,.37,0-1.14,.65-1.87,1.96-2.2-.17-.33-.41-.53-.74-.61-.32-.08-1.14-.12-2.44-.12,.16,.48,0,.85-.49,1.09-.48,.25-.57,.78-.24,1.59-.33,.33-.77,.41-1.34,.25-.58-.16-1.02-.08-1.35,.24-.81-.49-1.58-.49-2.32,0-.73,.49-1.42-.16-2.07-1.95,.81-.82,1.71-1.26,2.68-1.35,.98-.08,2.36-.85,4.16-2.32,2.27-1.78,4.76-3.29,7.44-4.51,2.69-1.22,5.17-2.57,7.45-4.03,.97-.16,1.79-1.14,2.44-2.93-.33,.65-1.1,1.22-2.32,1.71s-2.4,.98-3.54,1.46c-.82-.16-1.67,.05-2.56,.61-.9,.58-1.43,1.35-1.59,2.32-1.47,0-2.48,.13-3.05,.37s-1.43,.37-2.57,.37c-.32,0-.36,.12-.12,.36s-.53,.53-2.32,.86c0-.33,.16-.53,.49-.61,.33-.08,.89-1.1,1.71-3.06,.32-.48,.81-.73,1.47-.73s1.54-.81,2.68-2.44c1.14,.49,2.11,.49,2.93,0-.33-.81-.16-1.26,.49-1.34,.65-.08,1.3-.37,1.95-.86,.49,0,.94-.2,1.34-.61,.41-.4,1.18-1.01,2.32-1.83,.65-.16,1.18-.4,1.59-.73,.41-.32,.86-1.3,1.34-2.93,.82,.49,1.71,.73,2.69,.73s2.11,.09,3.42,.25c.65,.32,1.38,1.06,2.19,2.19-.65-.16-1.09-.08-1.34,.25-.24,.33-.69,.49-1.34,.49l-2.44,1.95c.65,.49,.73,.69,.24,.61-.49-.08-.73,.69-.73,2.32-.82-.16-1.31,0-1.47,.49-.16,.49-1.06,1.3-2.68,2.44-.82-.33-1.43-.33-1.83,0-.41,.33-1.27,1.14-2.57,2.44-.81-.65-1.5-.57-2.07,.24-.57,.82-.94,.98-1.1,.49-.82,1.14-1.02,1.92-.61,2.32,.4,.41,.77,1.26,1.1,2.57-.17-.82-.04-1.31,.36-1.47,.41-.16,1.35-.49,2.81-.98,.33-1.3,1.22-2.44,2.69-3.41,3.42-.65,5.94-1.87,7.57-3.67,1.13,.33,1.66-.12,1.58-1.34-.08-1.22,.13-1.42,.61-.61,.33-.32,.57-.45,.74-.37,.16,.09,.89-.28,2.19-1.09v-3.42c.49-.81,1.22-1.1,2.2-.86,.98,.25,1.63,.78,1.95,1.59,1.63-.49,2.53-.28,2.69,.61,.16,.9,.57,1.75,1.22,2.56,.32,.33,.77,.41,1.34,.25,.57-.16,1.14-.37,1.71-.61,.57-.25,1.1-.33,1.59-.25,.49,.09,.81,.45,.98,1.1l-1.96-.73c-.16,1.63-.89,2.48-2.2,2.56-1.3,.09-1.87,.53-1.7,1.35-.98,.65-2.32,1.18-4.03,1.58-1.71,.41-2.81,1.27-3.3,2.57-.98-.33-1.67-.37-2.07-.13-.41,.25-1.02,.94-1.83,2.08-.98,.16-1.92,.49-2.81,.98-.9,.48-1.18,1.14-.86,1.95-.49,.33-.85,.57-1.1,.73-.24,.17-.61,.49-1.09,.98-.82-.65-1.51-.69-2.08-.12-.57,.57-1.34,1.09-2.32,1.58-.16,.17-.36,.29-.61,.37-.24,.08-.61,.85-1.1,2.32-.65-.49-1.26-.57-1.83-.25Zm26.73-11.71c-.65,.16-1.3,.24-1.95,.24s-1.06-.32-1.22-.98c.49-.32,1.06-.48,1.71-.48s1.14,.4,1.46,1.22Zm-20.5,17.7c-1.47,.73-2.85,.61-4.15-.37,1.13-1.63,2.56-2.89,4.27-3.78,1.71-.9,3.21-2.08,4.52-3.54,.97,.32,1.7,.12,2.19-.61,.49-.74,1.06-1.35,1.71-1.84,1.3,.49,2.52,.45,3.66-.12,1.14-.57,1.87-1.34,2.2-2.32,1.63-.16,3.21-.77,4.76-1.83,1.55-1.05,2.89-2.15,4.03-3.29,1.3,.65,2.48,.61,3.54-.13,1.06-.73,2.08-1.34,3.05-1.83l-1.46,1.96c-.49,1.3-1.43,2.03-2.81,2.19-1.39,.17-2.56,1.06-3.54,2.69-.65,.82-1.51,1.38-2.56,1.71-1.06,.33-2.08,.65-3.06,.97-.97,.33-1.91,.82-2.8,1.47-.9,.65-1.43,1.55-1.59,2.68-.65-.32-1.22-.44-1.71-.36-.49,.08-.73,.61-.73,1.59-1.31,.16-3.18,1.3-5.62,3.41-1.14,.17-2.44,.61-3.9,1.35Zm17.33-5.25c-.49,.33-1.1,.33-1.83,0-.73-.33-1.34-.25-1.83,.24-.33-.49-.17-.85,.49-1.1,.65-.24,.97-.69,.97-1.34,.82,0,1.3,.29,1.47,.85,.16,.58,.4,1.02,.73,1.35Zm-5.86,3.17c-.16,.98-.98,1.55-2.44,1.71,0-1.63,.81-2.2,2.44-1.71Zm6.84,4.64c-2.28,.49-4.11,.9-5.5,1.22-1.38,.33-3.13-.08-5.24-1.22,1.78-1.79,3.74-3.25,5.85-4.4,2.12-1.13,4.24-2.76,6.35-4.88,1.3,0,2.2-.36,2.69-1.1,.49-.73,1.3-1.42,2.44-2.07,.65-.33,1.3-.45,1.95-.37,.65,.09,1.3,.04,1.96-.12-.82-.81-.78-1.26,.12-1.34,.89-.08,1.26-.53,1.1-1.35,.81,0,1.71,.17,2.68,.49,.98,.33,1.47-.49,1.47-2.44-.17-1.3,.2-2.32,1.1-3.05,.89-.73,1.74-.61,2.56,.37,.49,0,.73-.21,.73-.61s1.06-.37,3.17,.12c.65-.33,1.18-.37,1.59-.12,.41,.24,1.42-.13,3.05-1.1,.33,.32,.98,.41,1.96,.24,.97-.16,1.54,.08,1.71,.73l-1.71,1.22c.16,.49-.13,.86-.86,1.1-.73,.25-1.1,.78-1.1,1.59-.81-.32-1.3-.32-1.46,0-.17,.33-.49,.98-.98,1.95-.65,0-1.38,.58-2.2,1.71-.48,0-.77-.12-.85-.36-.08-.25-.94,.04-2.56,.85-1.47,.16-2.57,.65-3.3,1.46-.73,.82-1.75,1.88-3.05,3.18-1.31-.16-2.16,0-2.56,.49-.41,.49-1.1,.73-2.08,.73-.49,.82-1.1,1.43-1.83,1.83-.73,.41-1.51,1.18-2.32,2.32-.98,.49-2.61,1.46-4.88,2.93Zm31-14.89c-.81-.33-1.46-.33-1.95,0-.49,.33-.98,.16-1.46-.49,.32-.49,.97-.81,1.95-.98,.98-.16,1.46,.33,1.46,1.47Zm-10.98,36.13c-1.8,.65-2.77,.24-2.93-1.22,.81-.16,1.54-.33,2.19-.49,.65-.16,.9,.41,.74,1.71Zm.36-13.18c-.89,0-.69-.74,.61-2.2,1.14,.49,1.79,1.22,1.96,2.2h-2.57Zm11.36,6.71c-.98,.41-1.88,.37-2.69-.12,.49-.33,1.1-.81,1.83-1.47,.73-.65,1.75-1.13,3.05-1.46,.82,.16,1.1,.53,.86,1.1-.25,.57-.12,1.02,.36,1.34-1.3,0-2.44,.21-3.41,.61Zm6.83,2.44c.65,.25,1.79,.45,3.42,.61l-.24,.98c-.82-.33-1.55-.45-2.2-.37-.65,.09-1.22-.12-1.71-.61-.16-.65,.08-.85,.73-.61Zm7.57,46.51c-.98-.32-1.51-.12-1.59,.61-.08,.73-.53,1.02-1.34,.86,.32-.65,.77-1.26,1.34-1.84,.57-.56,1.18-.69,1.83-.36l-.24,.73Zm11.96-25.63c-.65-.82-1.26-.98-1.83-.49-.57,.49-1.1,1.3-1.59,2.44,.33,.49,.82,.77,1.47,.85,.65,.09,.81,.53,.49,1.35-.65,0-1.02,.24-1.1,.73-.08,.49-1.02,1.38-2.81,2.68,.49,.17,.81,.09,.98-.24,.16-.32,.89-.32,2.2,0,.64,.33,1.01,.73,1.09,1.22,.08,.49,0,1.06-.24,1.71-.24,.65-.53,1.34-.85,2.07-.33,.74-.49,1.43-.49,2.08-1.31,.33-2.32,.82-3.05,1.46-.74,.66-1.68,.74-2.81,.25,.49-.33,.97-.61,1.46-.86,.49-.24,1.55-1.09,3.18-2.56,.32-.81,.16-1.34-.49-1.59-.37-.13-.73-.41-1.09-.83,0,.03,0,.07-.01,.1-.08,.57-.53,1.43-1.34,2.56-.49-.81-1.19-.97-2.08-.48-.89,.48-1.59,.57-2.07,.24,.16-.65,.16-1.67,0-3.05-.17-1.38-.17-2.16,0-2.32,1.46-.65,2.19-1.71,2.19-3.17,1.14-.65,2.16-1.1,3.06-1.35,.89-.24,.93-1.18,.12-2.8-.82,.32-1.43,.45-1.83,.36-.41-.08-1.02,.7-1.83,2.32-.98,0-1.8,.08-2.45,.25-.65,.16-1.22-.17-1.7-.98,.16-.33,.36-.65,.61-.98,.24-.32-.13-.89-1.1-1.71,0-.81,.89-1.22,2.68-1.22,.16-.65,.08-1.71-.24-3.17-.82,.33-1.55,.53-2.2,.61-.65,.08-1.63,.04-2.93-.12,.16-1.14,.73-1.99,1.71-2.57,.98-.57,1.95-1.42,2.93-2.56,0-.32,.12-.73,.37-1.22,.24-.49,.28-.98,.12-1.47,.81-.32,1.38-.36,1.71-.12,.32,.25,.89,.04,1.71-.61,.48,.33,.89,.29,1.22-.12,.32-.4,.81-.61,1.46-.61-.33-.49-.65-.86-.97-1.1-.33-.24-.49-.69-.49-1.34-.49,.16-.94,.08-1.35-.25-.4-.32-.85-.64-1.34-.97-.65,.49-1.95,1.87-3.9,4.15-.17,.33-.49,.28-.98-.12-.49-.41-1.22-.21-2.2,.61-.33-.16-.69-.25-1.1-.25h-1.22c-.41,0-.73-.08-.97-.24-.25-.16-.13-1.38,.36-3.66,.49-.49,1.18-.77,2.08-.86,.89-.08,1.83-.28,2.8-.61,1.14-.16,1.87-.65,2.2-1.46,.33-.82,.81-1.47,1.47-1.96-.33,.17-.66,.37-.98,.61-.33,.25-1.14,.45-2.44,.61-.49-.32-.9-.36-1.22-.12-.33,.25-.9-.12-1.71-1.1-.82,0-1.51,.04-2.08,.12-.57,.09-.77-.44-.61-1.58,.49,.33,1.02,.53,1.59,.61s1.26,.2,2.08,.36c.32-.81,.93-1.22,1.83-1.22s1.5-1.22,1.83-3.66c-.65,.17-1.31,.25-1.96,.25s-.97-.25-.97-.74c-.17-.32-.45-.36-.86-.12-.4,.25-1.26,.78-2.56,1.59-.33-.49-.73-.53-1.22-.12-.49,.4-1.14,.12-1.95-.86-.33,.82-.98,.94-1.96,.37-.97-.57-2.03-.69-3.17-.37-1.31,.49-2.44,.82-3.42,.98-.98,.16-2.28,.41-3.91,.73,.17-1.3,.98-2.07,2.45-2.32,1.46-.24,2.35-.53,2.68-.85,.33-.33,.81-.65,1.47-.98,.65-.32,1.3-1.46,1.95-3.42,.65,.82,1.62,.9,2.93,.25,1.3-.65,2.28-1.71,2.93-3.18,.32,.65,.81,.86,1.46,.61,.65-.24,.74-1.26,.25-3.05-.49-.32-1.06-.28-1.71,.12-.65,.41-1.31,.61-1.95,.61,.16-.48,.52-.73,1.09-.73s1.35-.89,2.32-2.68c.33-.65,.74-1.18,1.22-1.59,.49-.41,.98-.53,1.47-.37,.81,0,1.34-.32,1.59-.97,.24-.65,.77-1.06,1.58-1.22-.16-.49-.36-.74-.61-.74h-1.34c-.16,0-.98-.08-2.44-.24-.33,.49-.65,.94-.98,1.34-.33,.41-.49,1.1-.49,2.08-.65-.82-1.18-.86-1.58-.13-.41,.74-1.1,.94-2.08,.61v2.93c-.49,.82-.49,1.51,0,2.08,.49,.57,1.3,.69,2.44,.37-.32,.81-.94,1.09-1.83,.85-.89-.24-1.26-.04-1.1,.61-1.3,.16-1.99-.24-2.07-1.22-.09-.98-.61-1.46-1.59-1.46-.49,.32-1.06,.65-1.71,.97-.65,.33-1.06,1.14-1.22,2.44-.65,.82-1.34,1.27-2.07,1.35-.74,.08-1.35,.2-1.83,.36,.16-.65-.74-1.05-2.69-1.22-.82,.17-1.51,.49-2.08,.98s-1.14,.97-1.7,1.46c-.58,.49-1.19,.94-1.84,1.35-.65,.4-1.38,.53-2.19,.36,.65-.81,1.3-1.54,1.95-2.2,.65-.64,1.47-1.78,2.44-3.41,1.3,.32,2.4,.16,3.3-.49,.89-.65,1.58-1.22,2.07-1.71-.81,.33-1.58,.49-2.32,.49s-1.91-.25-3.54-.73c.16-.82,.53-1.1,1.1-.86,.57,.25,1.1,.37,1.59,.37,.65-.65,1.14-1.18,1.46-1.59,.33-.4-.24-1.01-1.7-1.83-.82,1.14-1.71,1.79-2.69,1.95-.98,.17-1.3,1.31-.98,3.42-1.46-.81-2.36-.81-2.68,0-.49,.82-.98,1.34-1.47,1.59-.49,.24-.97,.04-1.46-.61-.65,.81-1.59,1.26-2.81,1.34-1.22,.08-1.99,.61-2.32,1.59-.49-.33-.98-.57-1.46-.74-.49-.16-.98-.4-1.47-.73,.33-.32,.61-.73,.86-1.22,.24-.49,1.01-1.3,2.32-2.44,1.3,.16,2.64-.16,4.02-.98,1.38-.81,2.08-1.87,2.08-3.17,.49,.49,1.22,.45,2.2-.12,.97-.57,2.35-1.67,4.15-3.3,1.79-.32,3.21-.73,4.27-1.22,1.06-.49,1.99-1.38,2.81-2.69,.48,.33,.93,.41,1.34,.25,.4-.16,.85-.37,1.34-.61,.49-.25,.98-.53,1.47-.86,.49-.32,1.3-1.22,2.44-2.68,.32-.16,.69-.28,1.1-.37,.4-.08,1.01,.53,1.83,1.83,0-.81,.4-1.22,1.22-1.22s1.46,.17,1.95,.49c-.81-.32-1.34-.16-1.59,.49-.24,.65-.77,.98-1.58,.98,0,.48,.12,.77,.36,.85,.25,.08,.57,.12,.98,.12h1.1c.32,0,.49,.25,.49,.73,.65-.32,.77-.64,.36-.97-.4-.33-.45-.89-.12-1.71,.81,.49,1.22,.53,1.22,.12s.49-.77,1.47-1.1c.65,.17,1.13,.41,1.46,.74,.33,.32,.89,.32,1.71,0,1.47,1.3,2.93,2.68,4.4,4.15s1.86,3.66,1.22,6.59c-.66-.49-1.14-.53-1.47-.12-.33,.4-1.3,.77-2.93,1.09-.16,.82-1.46,2.04-3.9,3.67-.33,.32-.41,.89-.25,1.71,.16,.81,0,1.62-.49,2.44-.65-.33-1.38-.57-2.19-.74-.82-.16-1.47,.17-1.96,.98,.82,.33,1.75,.53,2.81,.61,1.06,.08,1.99-.08,2.81-.49,.81-.4,1.5-.97,2.07-1.71,.57-.73,.94-2.15,1.1-4.27,.33-.32,1.63,.17,3.91,1.47,1.3-.33,1.95-1.06,1.95-2.2-.16-.33-.49-.41-.98-.25-.48,.17-1.22,.09-2.19-.24,.49-.32,1.05-.4,1.71-.24,.64,.16,1.13,.08,1.46-.25,.65,.49,1.14,1.39,1.47,2.69,.97,.97,1.87,2.6,2.68,4.88,.81,2.28,.81,4.07,0,5.37,.49,.33,.86,.61,1.1,.86,.24,.24,.61,.61,1.1,1.09-.65,.49-.86,1.19-.61,2.08,.24,.9-.04,1.43-.86,1.59,.49,.81,1.06,1.5,1.71,2.07s.82,1.75,.49,3.54l-.73,1.71c.65,2.28,1.06,4.64,1.22,7.08,.16,2.44-.16,4.88-.98,7.33Zm-15.38-12.46c.81-.32,1.26-.24,1.34,.25,.08,.49,.53,.57,1.35,.24,0,.65-.9,.49-2.69-.49Zm5.13-3.41c.16,.32,.28,.77,.37,1.34,.08,.57,.2,1.02,.36,1.34-.33-.32-.69-.61-1.1-.85-.41-.25-.28-.86,.37-1.83Zm-21.73-16.12c.65,.33,.94,.74,.85,1.22-.08,.49,.21,.9,.86,1.22-.49,.49-.9,.58-1.22,.25-.33-.33-.49-1.22-.49-2.69Zm30.15,17.95c-.57-.08-.94,.2-1.1,.85,.82,.33,1.18,.82,1.1,1.47-.08,.65,.04,1.14,.37,1.46,.16-.65,.49-1.14,.97-1.46,.49-.33,.57-.9,.25-1.71-.49-.33-1.02-.53-1.59-.61Zm-2.81-5.13c.98,.41,1.79,.21,2.45-.61-.66-.32-1.14-.69-1.47-1.1-.33-.4-1.3-.36-2.93,.12,.33,.66,.98,1.19,1.95,1.59Zm-.24,2.56c.16,.49,.65,.74,1.46,.74,0-.49-.04-.98-.12-1.47-.08-.49-1.02-.57-2.8-.24,.81,.16,1.3,.49,1.46,.97Zm-.49,6.84c.33-.32,.61-.16,.86,.49,.24,.65,.93,.49,2.07-.49-.81,0-1.59-.28-2.32-.85-.73-.57-.94-.29-.61,.85Zm-3.05-17.94c.08-.41,.61-1.18,1.59-2.32,.81,.16,1.42,.12,1.83-.13,.4-.24,.93-.44,1.58-.61,0-.64-.28-1.05-.85-1.22-.57-.16-1.75-.24-3.54-.24-.65,.65-1.34,1.18-2.07,1.59-.74,.4-1.51,.77-2.32,1.09-1.31-.64-2.45-.24-3.42,1.23,1.46-.17,2.52,.08,3.17,.73,.65,.65,1.71,.81,3.18,.49,.48,0,.77-.21,.85-.61Zm.73,20.26c-.57,1.22-1.02,1.91-1.34,2.07,.32,0,.57,.09,.73,.25s.65-.49,1.47-1.95c.81,.16,1.38-.08,1.71-.74,.32-.65,.4-1.13,.24-1.46-1.3,0-2.24,.61-2.81,1.83Zm.61-17.58c-.16,.25-.97,1.02-2.44,2.32,.65-.32,1.22-.32,1.71,0,.49,.33,.98-.4,1.47-2.2-.33-.32-.58-.36-.74-.12Zm-1.22,35.89c-.33,.41-.65,.77-.97,1.1,.48-.16,.97-.33,1.46-.49,.49-.16,.89-.49,1.22-.98-.82-.16-1.38-.03-1.71,.37Zm-13.18-42.85c-.65-.32-1.14-.08-1.47,.74,1.79,.97,3.42,1.3,4.89,.97l-1.96-1.71c-.32,.33-.81,.33-1.46,0Zm-1.95-13.42c.48-.16,.85-.16,1.09,0,.25,.16,1.02-.08,2.32-.74-1.63-.32-2.77-.08-3.41,.74Zm-2.69,.24c-.16-1.3,.28-2.08,1.34-2.32,1.06-.24,1.99-.12,2.81,.37l-.24-1.47c-.82,.33-1.31,.41-1.47,.25-.16-.16-.65-.33-1.46-.49-.49,.16-.86,.49-1.1,.97-.25,.49-.61,.9-1.1,1.22-1.31-.48-2.16-.44-2.56,.13-.41,.57-.53,1.5-.37,2.8,.32,.33,.57,.45,.73,.37,.16-.08,.73,.45,1.71,1.59-.98-.16-1.71-.33-2.2-.49-.48-.16-1.3-.89-2.44-2.2-.16,.49-.2,.94-.12,1.34,.08,.41,.28,1.02,.61,1.84-.49,.32-1.1,.53-1.83,.61s-1.26,.36-1.59,.85c.82,.33,1.38,.69,1.71,1.1,.33,.41,.89,.61,1.71,.61,.32-.98,1.3-1.95,2.93-2.93,.65,.16,1.18,0,1.59-.49,.4-.49,.61-.89,.61-1.22,.65,0,1.13,.08,1.46,.24,.33,.17,.89,.17,1.71,0,0-.64-.82-1.54-2.44-2.68Zm3.3,16.48c.89,.24,1.5-.04,1.83-.86-.94,.17-1.72,.43-2.34,.78,.16,0,.33,.03,.51,.08Zm-1.84,1.1c.31-.47,.75-.86,1.33-1.18-.62,0-1.07,.4-1.33,1.18Zm-38.94-33.82c.25-.4,.53-.77,.86-1.09-.49,.32-.94,.53-1.34,.61-.41,.08-.7,.45-.86,1.09,.65,0,1.1-.2,1.34-.61Zm-2.8,.61c-.66-.48-1.35-.61-2.08-.36-.73,.24-1.34,.69-1.83,1.34,.81-.32,1.5-.49,2.08-.49s1.17-.16,1.83-.49Zm-5.01,3.18c.25-.65,.77-.81,1.59-.49-.33-.81-.86-1.01-1.59-.61-.73,.41-1.18,1.18-1.34,2.32,.65-.16,1.1-.57,1.34-1.22Zm-36.01-13.8c.33-.56,.98-.85,1.95-.85l-1.95-.98c-.16,.33-.37,.66-.61,.98-.24,.33-.77,.9-1.59,1.71,1.14,0,1.87-.28,2.2-.86Zm.12,4.89c.25-.41,.61-.61,1.1-.61v-1.47c-1.63,0-2.52,.73-2.68,2.2,.81,.33,1.34,.29,1.58-.12Zm-4.03-13.55c.33,0,1.31-.16,2.93-.49,0-.81-.97-.65-2.93,.49Zm-6.34,3.66c.97,.16,2.03-.04,3.17-.61s1.87-1.26,2.2-2.08c-.65,.17-1.47,.58-2.44,1.22-.98,.66-1.96,1.15-2.93,1.47Zm.12-7.2c.89-.08,1.34-.45,1.34-1.1-.33,0-.89-.04-1.71-.12-.81-.08-1.38,.28-1.71,1.1,.49,.16,1.18,.2,2.08,.12Zm-2.08,10.62c.49-.33,1.06-.53,1.71-.61,.65-.08,1.06-.45,1.22-1.1-.81,.16-1.38,.41-1.71,.73-.32,.33-.73,.65-1.22,.98Z"/>
      <path class="cls-1" d="M206.13,402.32c.16,.65,0,.97-.49,.97s-.49,1.06,0,3.18c.49-1.3,1.38-1.96,2.68-1.96,0-.32-.73-1.05-2.19-2.19Zm0,0c.16,.65,0,.97-.49,.97s-.49,1.06,0,3.18c.49-1.3,1.38-1.96,2.68-1.96,0-.32-.73-1.05-2.19-2.19Zm-11.36-42.61c.41-.73,.2-1.01-.61-.85-.49,.33-.97,.61-1.46,.85-.49,.25-1.14,.21-1.96-.12-.32,.33-.24,.65,.25,.98,.49,.33,.98,.82,1.46,1.46,0-.16,.98-.4,2.93-.73-.81-.32-1.02-.85-.61-1.59Zm0,0c.41-.73,.2-1.01-.61-.85-.49,.33-.97,.61-1.46,.85-.49,.25-1.14,.21-1.96-.12-.32,.33-.24,.65,.25,.98,.49,.33,.98,.82,1.46,1.46,0-.16,.98-.4,2.93-.73-.81-.32-1.02-.85-.61-1.59Zm-16.48,146s-.01-.01-.01-.02c-.08,.12-.15,.25-.23,.39,.32,0,.4-.13,.24-.37Zm98.39-175.66c-2.77,.82-5.21,.82-7.32,0-2.12-.81-4.24-1.06-6.35-.73-1.14-.65-2.16-.89-3.05-.73-.9,.16-1.75,.32-2.57,.48-3.25,.33-6.38,.37-9.39,.13-3.02-.25-6.15-.37-9.4-.37-.82,1.14-.82,2.69,0,4.64,1.46-.32,2.6-.2,3.41,.37,.82,.57,1.63,.69,2.45,.36,.16,.82,.48,1.34,.97,1.59,.49,.24,1.38,.69,2.69,1.34,.65,.98,1.22,2.4,1.71,4.27,.48,1.88,.97,3.3,1.46,4.28-.33,.81-.53,1.87-.61,3.17-.08,1.3,.2,2.28,.86,2.93-1.31,2.44-2.49,5.13-3.54,8.06-1.07,2.93-2.08,5.45-3.06,7.56,.49,.98,.29,2.08-.61,3.3-.89,1.22-1.34,2.73-1.34,4.52-.65,2.28-1.06,4.27-1.22,5.98-.16,1.71-.41,4.03-.73,6.96-1.31,2.11-2.41,4.96-3.3,8.54-.9,3.58-1.43,6.76-1.59,9.52-.65-.97-1.46-1.38-2.44-1.22-.97,.17-1.95,.37-2.93,.61-.97,.25-1.83,.33-2.56,.25s-1.18-.86-1.34-2.32c.65-1.3,1.05-2.36,1.22-3.18-.82-.81-1.8-1.13-2.93-.97-.33-1.79-.98-3.5-1.95-5.13-.98-1.62-1.63-3.42-1.96-5.37,.33-.81,.94-1.38,1.83-1.71,.9-.32,1.18-1.22,.86-2.69-.65-.16-1.27-.28-1.83-.36-.58-.08-1.35,.04-2.32,.36-.17-.81-.17-1.7,0-2.68-1.96-2.44-2.44-5.13-1.47-8.06-.81-1.62-1.63-3.21-2.44-4.76-.82-1.54-1.3-3.21-1.46-5-.17-.65-.49-1.06-.98-1.22-.49-.16-.73-.57-.73-1.22,.49-1.63,.24-3.18-.74-4.64-.97-1.47-1.87-2.85-2.68-4.15,.32-.98,.4-1.79,.24-2.44-.16-.65-.45-1.26-.85-1.84-.41-.56-.86-1.17-1.34-1.83-.49-.65-.82-1.38-.98-2.19,.98-.33,1.62-.82,1.95-1.47,.33-.65,1.14-1.06,2.44-1.22-.16-1.46-.73-2.32-1.71-2.56-.97-.25-1.87-1.18-2.68-2.81,2.6-1.14,5.08-1.67,7.45-1.59,2.35,.09,4.67-.04,6.95-.36,.33-.33,.49-.86,.49-1.59s.16-1.34,.49-1.83c-1.14-.65-2.53-1.06-4.15-1.22-1.63-.16-3.3-.25-5-.25s-3.42,.05-5.13,.13-3.3,.04-4.76-.13c-1.8-.16-3.42-.08-4.89,.25-1.46,.33-2.93,.49-4.39,.49-.82,.16-1.67,.12-2.56-.13-.9-.24-1.83-.36-2.81-.36s-2,.16-3.05,.49c-1.06,.32-2.16,.48-3.3,.48-8.79-.32-17.74-.32-26.85,0-.33,.33-.53,.86-.61,1.59-.08,.73,.04,1.34,.36,1.83,2.28,.33,4.19,.73,5.74,1.22s3.45,.33,5.74-.49c2.76,1.47,4.76,3.51,5.98,6.11,1.22,2.6,2.4,5.29,3.54,8.05-.33,.82-.82,1.39-1.47,1.71-.65,.33-.89,1.06-.73,2.2-1.79-.16-3.46,.29-5,1.34-1.55,1.06-1.43,2.49,.36,4.28,1.79-.33,3.3-.82,4.52-1.47,1.22-.65,2.72-1.22,4.51-1.71,.82,.82,1.18,1.71,1.1,2.69-.08,.97,.21,2.03,.86,3.17,.97,.49,1.79,1.39,2.44,2.69,.65,1.3,1.3,2.85,1.95,4.64-.33,1.3-.08,2.44,.74,3.41,.81,.98,.89,2.12,.24,3.42,.49,.33,.98,.78,1.46,1.34,.49,.58,1.06,1.76,1.71,3.54-.33,.98-.28,2.12,.13,3.42,.4,1.31,.73,2.53,.97,3.66,.25,1.15,.28,2.16,.12,3.06-.16,.89-.89,1.58-2.19,2.07,.16,.65,0,1.18-.49,1.59-.49,.41-.41,.77,.24,1.1,.33-.82,.86-1.43,1.59-1.83,.73-.41,1.5-.77,2.32-1.1,.81,.97,1.26,2.44,1.34,4.39,.08,1.95,.61,3.42,1.59,4.4-.33,1.3-1.06,2.19-2.2,2.68-.16,1.47,.33,2.49,1.47,3.05,1.13,.58,2.11,.45,2.93-.36,.48,1.46,1.01,2.68,1.58,3.66,.57,.98,.86,2.2,.86,3.66,1.3,.33,1.95,.98,1.95,1.95s.49,1.71,1.46,2.2c-.48,.98-.4,1.96,.25,2.93,.65,.98,1.3,1.63,1.95,1.95-.33,.98-.12,2.04,.61,3.18s.77,2.28,.12,3.42c1.31,1.79,2.36,4.11,3.18,6.95,.81,2.85,1.54,5.42,2.2,7.7,1.13,1.62,2.11,3.25,2.93,4.88,.81,1.63,1.05,3.66,.73,6.1,.97,.33,1.58,1.1,1.83,2.32,.24,1.22,.32,2.52,.24,3.91-.08,1.38-.16,2.8-.24,4.27-.09,1.46,.12,2.6,.61,3.42-.82,1.95-1.47,3.98-1.95,6.1-.49,2.11-1.06,3.91-1.71,5.37-.17,.81-.49,1.47-.98,1.96-.49,.48-.9,1.05-1.22,1.7-.33,.82-.57,1.63-.73,2.45-.17,.81-.41,1.62-.74,2.44-.32,.81-.89,1.91-1.7,3.29-.82,1.38-1.63,2.57-2.45,3.54-.67,.88-1.44,1.68-2.31,2.38-3.3,2.75-7.98,4.31-14.04,4.7-.66-.97-.82-1.67-.49-2.07,.32-.41,.4-1.02,.24-1.83,.97-.57,1.79-1.29,2.47-2.16,1.23-1.59,1.96-3.68,2.17-6.27,.33-3.99-.49-7.36-2.44-10.13,.32-.33,.77-.61,1.34-.85,.57-.25,.77-.86,.61-1.83-.81-.66-1.71-.82-2.68-.49-.98,.32-1.8,.65-2.44,.97-.33-.81-.86-1.34-1.59-1.58-.73-.25-1.51-.41-2.32-.49-.82-.08-1.63-.12-2.44-.12s-1.14-.49-.98-1.47c-1.79-.16-3.34,.28-4.64,1.35-1.3,1.05-3.09,1.42-5.37,1.09-1.63,.82-3.05,1.79-4.27,2.93-1.22,1.14-2.16,2.61-2.81,4.4-.65,1.79-1.79,3.25-3.42,4.39-.67,.47-1.09,1.05-1.27,1.75-.23,.98,.03,2.19,.79,3.62,.32,1.3,.61,2.69,.85,4.15,.24,1.47-.04,2.85-.85,4.15,1.3,.33,2.44,1.06,3.41,2.2-.32,.33-.73,.57-1.22,.73-.48,.16-.65,.65-.48,1.47,1.79,.65,4.06,1.06,6.83,1.22,.33,.49,.61,.93,.86,1.34,.24,.41,.44,.86,.61,1.35,1.13,.81,2.32,1.38,3.54,1.7,1.22,.33,2.23,.57,3.05,.74,.65,.16,1.3,.16,1.95,0,.65-.17,1.38-.25,2.2-.25,.81,.16,1.58,.49,2.32,.98,.73,.49,1.74,.4,3.05-.24,.65,.16,1.1,.03,1.34-.37,.25-.41,.61-.7,1.1-.86,1.95-.32,3.94-.53,5.98-.61,2.04-.08,3.7-.61,5.01-1.58,.97-.49,1.79-1.1,2.44-1.83,.65-.74,1.54-1.02,2.68-.86,.82-2.28,2-4.35,3.54-6.22,.72-.87,1.42-1.71,2.12-2.52,.82-.95,1.62-1.86,2.4-2.73,.49-.82,.86-2,1.1-3.54,.24-1.55,.45-2.97,.61-4.28,1.14-1.3,2.23-2.85,3.3-4.63,1.05-1.8,1.83-3.99,2.31-6.6,.33-2.11,.9-4.11,1.71-5.98,.82-1.87,1.71-3.46,2.69-4.76,.65-2.93,1.5-5.7,2.56-8.3,1.06-2.6,2.08-5.21,3.05-7.81,0-1.47,.25-2.56,.74-3.3,.49-.73,1.54-2.23,3.17-4.51-.98-1.96-1.26-3.99-.85-6.11,.4-2.11,.97-4.27,1.71-6.47,.73-2.19,1.42-4.39,2.07-6.59s1.3-4.43,1.95-6.71c0-1.14,.21-2.2,.61-3.18,.41-.97,.86-1.95,1.35-2.93,.48-.97,.85-1.95,1.1-2.93,.24-.97,.52-2.27,.85-3.9-.33-1.63-.37-2.93-.12-3.91,.24-.98,.61-1.87,1.1-2.68,.48-.82,.89-1.63,1.22-2.45,.32-.81,.4-1.95,.24-3.41,.49-.49,.86-.94,1.1-1.35,.24-.4,.61-.77,1.1-1.09-.49-1.96-.09-3.99,1.22-6.11,1.3-2.11,2.28-4.88,2.93-8.3,1.46-4.88,2.93-9.31,4.39-13.3,1.47-3.99,2.85-8.34,4.15-13.07,.98-1.46,2-2.96,3.06-4.51,1.05-1.55,2.27-2.93,3.66-4.15,1.38-1.22,2.97-2.12,4.76-2.69,.04-.01,.08-.02,.12-.03,1.4-.43,2.99-.54,4.78-.32,.47,.05,.95,.13,1.45,.23,.07-.07,.14-.14,.2-.21,.56-.58,1.07-1.16,1.51-1.74,.41-.55,.65-1.29,.71-2.2,.01-.16,.02-.32,.02-.49-.82-.16-1.71-.73-2.69-1.71Zm-90.82,153.57c.49,.16,1.02,.36,1.59,.61,.57,.24,.85,.77,.85,1.58-.81-.32-1.55-.32-2.19,0s-1.14,.9-1.47,1.71c-1.46,0-2.2,.57-2.2,1.71-.97-.33-1.67-.2-2.07,.37-.41,.57-1.26,.77-2.57,.61,0-.82,.25-1.31,.74-1.47s.65-.65,.49-1.46c1.95-.49,3.33-1.31,4.15-2.44,.32,.32,.77,.48,1.34,.48s1.01-.57,1.34-1.7Zm-18.55,3.41c.32-.97,1.3-1.79,2.93-2.44-.17,.49-.41,.86-.74,1.1-.32,.25-.16,.94,.49,2.08,.81-.33,1.63-.7,2.44-1.1,.82-.41,1.14-1.02,.98-1.83,.49-.17,1.02-.29,1.59-.37,.57-.08,.93-.61,1.1-1.59,1.79,0,3.09-.45,3.9-1.34,.81-.9,2.12-1.34,3.91-1.34l-.49,2.2c-2.93,.81-5.41,2.15-7.45,4.02-2.03,1.87-4.27,3.87-6.71,5.98-.82-.16-1.26-.08-1.34,.25-.09,.32-.61-.33-1.59-1.95,.81-.17,1.34-.74,1.59-1.71,.24-.98,.04-1.63-.61-1.96Zm10.01,3.42c0,1.3-.58,2.2-1.71,2.69-1.14,.49-2.12,.4-2.93-.25,.65-.32,1.26-.81,1.83-1.46s1.5-.98,2.81-.98Zm-10.75,6.59c.33-.32,.86-.48,1.59-.48s.94-.58,.61-1.71c.65,.32,2.03,.24,4.15-.25-.33,.98-.89,1.43-1.71,1.35-.81-.09-1.22,.36-1.22,1.34-.49-.33-1.02-.37-1.58-.12-.58,.24-1.19,.2-1.84-.13Zm14.9,11.36c-.66,1.05-1.71,1.09-3.18,.12,.16-.49,.04-.82-.36-.98-.38-.15-.87-1.08-1.45-2.77-.38,.42-.42,.29-.14-.4,.04,.14,.09,.27,.14,.4,.07-.08,.14-.17,.23-.28,.56-.73,1.58-1.26,3.05-1.59,.16,.65,.08,1.06-.25,1.22-.27,.13-.66,.62-1.15,1.45,.25-.11,1.04-.11,2.37,.02,1.14,.81,1.39,1.75,.74,2.81Zm1.71-12.33c-.17,.81-.53,1.42-1.1,1.83-.57,.4-1.19,.81-1.83,1.22-.66,.4-1.27,.81-1.83,1.22-.58,.4-.94,1.01-1.1,1.83-1.31,.49-2.32,1.14-3.06,1.95-.73,.82-1.75,.9-3.05,.25-.49-.17-1.1-.37-1.83-.61-.73-.25-1.26-.78-1.58-1.59,.81,.49,1.5,.24,2.07-.73,.57-.98,.69-1.55,.37-1.71,0-.16,.08-.24,.24-.24s.73-.74,1.71-2.2c.49-.17,1.06-.12,1.71,.12,.65,.24,1.22-.21,1.71-1.34,.16-.33,.36-.61,.61-.86,.15-.15,.48-.32,1-.51,.29-.11,.65-.22,1.07-.34,.49-.33,.82-.65,.98-.98,.16-.33,.73-.73,1.71-1.22l2.68-2.68c.82,.16,1.67-.09,2.57-.74,.89-.65,1.83-.73,2.81-.24,.32,.81,.24,1.38-.25,1.71-.49,.32-.65,.89-.49,1.71-.97,.48-1.75,1.22-2.32,2.19-.46,.79-1.15,1.36-2.08,1.72-.22,.1-.47,.18-.72,.24Zm24.9-130.74c.49-.08,1.46,.21,2.93,.85-1.14-.32-1.87-.12-2.2,.61-.33,.74-.73,.61-1.22-.36-.65-.16-1.26-.08-1.83,.24-.57,.33-1.18,.73-1.83,1.22-.65,.49-1.31,.86-1.96,1.1-.65,.25-1.22-.28-1.7-1.59,1.78-.32,3.21-1.05,4.27-2.19,1.06-1.14,1.99-1.3,2.81-.49,0,.49,.24,.69,.73,.61Zm-5.49-16.85c.24,.25,.69,.45,1.34,.61l-.25,2.2c-.81,.17-1.67,.17-2.56,0-.9-.16-1.67,.17-2.32,.98,1.3-.49,2.6-.57,3.91-.25-.82,.33-1.39,.9-1.71,1.71-.33,.82-1.14,1.96-2.44,3.42-.33,.17-.53,.12-.61-.12-.09-.25-.86-.2-2.32,.12,0-.81,.04-1.42,.12-1.83,.08-.4-.04-.85-.37-1.34,.16-.33,.37-.57,.61-.74,.25-.16,.94,0,2.08,.49,.32-.49,.4-.97,.24-1.46-.16-.49-.81-1.47-1.95-2.93-.49-.16-.9-.16-1.22,0-.33,.16-.9-.33-1.71-1.47,.32-.64,.77-.69,1.34-.12s1.51,.45,2.81-.36l-1.22,1.95c.65,.81,1.38,.98,2.2,.49,.81-.49,1.71-1.14,2.68-1.96,.65,.17,1.1,.37,1.35,.61Zm-14.04,1.35c.49-.49,.89-1.14,1.22-1.96,.32,.33,.81,.49,1.46,.49s1.14,.17,1.47,.49l-2.2,1.22c-.82,0-1.43,.21-1.83,.61-.41,.41-.86,.78-1.34,1.1,.32-.81,.73-1.46,1.22-1.95Zm-.98-5.62c.65,.17,1.1,.17,1.34,0,.25-.16,.69-.32,1.35-.49-.33,.33-.7,.58-1.1,.74-.41,.16-.94,.08-1.59-.25Zm5.13,6.84c.97,.16,1.79,.41,2.44,.73-.33,.82-.98,1.26-1.95,1.34-.98,.09-1.71-.04-2.2-.36,.16-1.3,.73-1.87,1.71-1.71Zm5.37-10.26c.49,.33,.85,.37,1.1,.13,.24-.25,.85-.13,1.83,.36-.17,.33-.33,.57-.49,.73-.16,.17-.73,.49-1.71,.98-.33-.49-.9-.57-1.71-.24-.81,.32-1.3,.08-1.46-.74,1.3-.32,2.11-.73,2.44-1.22Zm-7.94-5.25c2.04-1.22,4.19-1.58,6.47-1.09,0,.97-.28,1.67-.85,2.07-.57,.41-1.18,.7-1.83,.86-.65,.16-1.31,.36-1.95,.61-.66,.24-1.07,.69-1.23,1.34-1.14,.33-2.11,.45-2.93,.36-.81-.08-1.38,.46-1.7,1.59-.82-.16-1.43-.12-1.84,.12-.4,.25-.85,.53-1.34,.86-.49,.33-.97,.65-1.46,.98-.49,.32-1.06,.4-1.71,.24-.33-.98-.17-1.5,.49-1.59,.64-.08,.89-.61,.73-1.58,.81,.32,1.34,.2,1.59-.37,.24-.57,.69-1.1,1.34-1.59,2.11-.65,4.19-1.58,6.22-2.81Zm-13.79,6.47c-.33-.48-.65-.93-.98-1.34-.32-.4-.57-.93-.73-1.59,1.3-.81,2.69-1.58,4.15-2.31,1.47-.74,3.42-.78,5.86-.13-.49,.49-1.02,.74-1.59,.74s-.69,.4-.36,1.22c-.98,.16-2.2,.53-3.66,1.09-1.47,.58-2.37,1.35-2.69,2.32Zm4.64,5.38c0,.32-.04,.53-.12,.61-.09,.08-.94-.04-2.57-.37,.16-.49,.49-.85,.98-1.1,.49-.24,.73-.77,.73-1.59,.81,.33,1.51,.41,2.08,.25,.57-.16,1.26-.33,2.07-.49,.33,.98,.12,1.43-.61,1.34-.73-.08-1.58,.37-2.56,1.35Zm2.93,8.17c0-.24-.82-.69-2.44-1.34,.16-.81,.69-1.38,1.58-1.71,.9-.32,1.84-.65,2.81-.97-.16,.97,.25,1.38,1.22,1.22,.98-.16,1.55,.16,1.71,.97-.82-.32-1.51-.32-2.07,0-.58,.33-1.27,1.22-2.08,2.69-.49-.33-.73-.61-.73-.86Zm4.39,15.75c-.33-.32-.36-.73-.12-1.22,.25-.49,.45-1.46,.61-2.93,.81,.16,1.38,.04,1.71-.37,.32-.4,.89-1.01,1.71-1.83,1.14,.17,1.91-.12,2.32-.85,.4-.73,1.01-1.26,1.83-1.59-.33-.32-.77-.4-1.34-.24-.58,.16-1.19,.16-1.83,0,.16,.49,.03,.89-.37,1.22-.41,.33-1.26,.08-2.56-.73-.66,.48-1.06,.57-1.22,.24-.17-.32-.98,.41-2.45,2.2,0-1.14-.24-1.99-.73-2.57-.49-.56-.89-1.25-1.22-2.07,.33-.16,.65-.45,.98-.86,.32-.4,1.22-.77,2.68-1.09,.65-.33,1.26-.65,1.83-.98,.57-.32,.04-1.14-1.58-2.44,.65-.16,1.62-.25,2.93-.25-.17,.82,.08,1.1,.73,.86,.65-.25,1.22-.12,1.71,.36-.17,.82-.12,1.31,.12,1.47,.24,.16,.57,.24,.98,.24s.85,.05,1.34,.13c.49,.08,1.3,.28,2.44,.61,.98-.33,1.67-.94,2.08-1.84,.4-.89,1.01-1.74,1.83-2.56,.16-.32,.4-.36,.73-.12,.32,.24,1.3,.04,2.93-.61-.16,.98-.08,1.75,.24,2.32,.33,.57,.65,1.1,.98,1.59-.65,.16-1.06,.08-1.22-.25-.16-.32-.65-.4-1.47-.24,.16,.49,.37,.89,.61,1.22,.25,.33,.29,.89,.13,1.71-.82,.16-1.35,.48-1.59,.97s-1.1,1.22-2.56,2.2c-.66,.16-.98-.04-.98-.61s-.82-1.34-2.44-2.32l-.86,.86c-.24,.24,.13,.85,1.1,1.83,.33,0,.57-.08,.74-.25,.16-.16,.81,.49,1.95,1.96-1.31-.16-2.16,0-2.57,.48-.4,.49-1.42,1.06-3.05,1.71l-4.88,2.93c.16,.17-.57,.73-2.2,1.71Zm2.93,10.01c.49-.65,.53-1.22,.12-1.71-.4-.49-.36-1.3,.13-2.44,1.13-1.3,2.44-2.36,3.9-3.17,1.47-.82,3.5-.98,6.11-.49-1.8,1.14-3.38,2.52-4.76,4.15-1.39,1.63-3.22,2.85-5.5,3.66Zm2.81,5.01c-.24,.57-.77,.85-1.59,.85,.33-1.14,.53-2.07,.61-2.81,.08-.73,.21-1.58,.37-2.56,1.62-.65,3.13-1.47,4.52-2.44,1.38-.98,2.72-2.04,4.02-3.18,1.31-1.13,2.69-2.23,4.16-3.29,1.46-1.06,3.09-1.91,4.88-2.57,.32-.32,.49-1.22,.49-2.68,.48,.65,.81,1.46,.97,2.44,.16,.98,.49,1.87,.98,2.69-.16,.97-.82,1.62-1.95,1.95-2.61,2.12-5.21,4.11-7.82,5.98-2.6,1.87-5.29,3.7-8.05,5.49-.82-.48-1.35-.44-1.59,.13Zm9.89,28.19c-.33-.81-.61-1.66-.86-2.56-.24-.89-.69-1.59-1.34-2.07-.33-1.14-.12-1.84,.61-2.08s1.02-1.01,.86-2.32c-.49,0-.82,.08-.98,.25-.17,.16-.65-.49-1.47-1.96-1.3-.32-1.99-.73-2.07-1.22-.08-.49-.21-1.14-.37-1.95,1.3,.49,2.12,.33,2.44-.49,.33-.81,1.79-1.63,4.4-2.44-.49-.98-1.1-1.47-1.83-1.47s-1.47,.25-2.2,.74c-.73,.48-1.46,.97-2.2,1.46-.73,.49-1.42,.65-2.07,.49,.32-.98,.97-1.55,1.95-1.71,.98-.16,1.87-1.14,2.69-2.93-.33,.33-.86,.53-1.59,.61s-1.43,.21-2.08,.37c.49-.49,.29-.86-.61-1.1-.89-.25-1.5-.61-1.83-1.1,.16-.81,.13-1.38-.12-1.71-.24-.32-.53-.73-.85-1.22,.81-.32,1.34-.98,1.58-1.95,.25-.98,.94-1.3,2.08-.98,.32-.81,.93-1.34,1.83-1.59,.89-.24,1.5-.77,1.83-1.58,1.14,0,2.24-.33,3.3-.98,1.05-.65,2.07-1.34,3.05-2.08,.97-.73,1.95-1.42,2.93-2.07,.97-.65,2.11-.98,3.42-.98,.32,.82,.52,1.55,.61,2.2,.08,.65,.28,1.39,.61,2.2-.49,.33-.86,.69-1.1,1.1-.25,.4-.78,.85-1.59,1.34-1.3,.16-2.24,.57-2.81,1.22-.57,.65-1.42,1.14-2.56,1.46-1.3,.82-2.56,1.47-3.78,1.96-1.22,.49-2.32,1.3-3.3,2.44,.32,.82,.77,.98,1.34,.49s1.43-.82,2.57-.98c1.13-.65,2.32-1.18,3.54-1.59,1.22-.4,2.07-1.25,2.56-2.56,.81-.32,1.67-.57,2.56-.73,.9-.16,1.51-.73,1.83-1.71,.16,.33,.37,.49,.61,.49s.37,.89,.37,2.68c-2.12,.66-4.31,1.96-6.59,3.91-.49,0-.86-.08-1.1-.25-.24-.16-.77,.09-1.59,.74,.33,.49,.08,1.02-.73,1.58-.82,.58-1.46,1.1-1.95,1.59,.49,.49,.93,.61,1.34,.37,.41-.25,.77,.04,1.1,.85,.32-.97,1.1-1.5,2.32-1.59,1.22-.08,1.91-.61,2.07-1.58,1.14,0,2-.33,2.57-.98s1.1-.98,1.58-.98c0-.32,.21-.52,.61-.61,.41-.08,1.35-.2,2.81-.36,.33,.49,.49,1.06,.49,1.71s.32,1.14,.98,1.46c-.49,.82-1.27,1.14-2.32,.98-1.06-.16-1.34,.49-.86,1.95-.97,0-1.83,.12-2.56,.37-.73,.24-1.18,.94-1.34,2.07-.33-.16-.86-.12-1.59,.13-.73,.24-1.34,.65-1.83,1.22s-.73,1.14-.73,1.7,.57,.37,1.71-.61c-.33-.64-.17-.81,.48-.48,.65,.32,1.38,.16,2.2-.49,.98,.16,1.75,.08,2.32-.25,.57-.32,1.1-.64,1.59-.97,.49-.33,1.01-.65,1.58-.98,.57-.32,1.35-.49,2.32-.49,.82,1.47,1.14,3.18,.98,5.13-1.14,.98-2.32,1.83-3.54,2.56-1.22,.74-2.89,1.92-5,3.54,0,.98-.98,1.96-2.93,2.93-1.31,.33-2.41,.7-3.3,1.1-.9,.41-1.92,.86-3.05,1.34Zm3.66,7.33c-.82-.65-.9-1.3-.24-1.95,.64-.65,1.46-1.14,2.44-1.47,.81-.32,1.26-.73,1.34-1.22,.08-.49,.28-1.06,.61-1.71-.82,0-1.63,.45-2.44,1.34-.82,.9-1.79,1.1-2.93,.61,0-.81,.32-1.46,.98-1.95,.64-.49,.81-1.22,.48-2.2,.82,.33,1.55,.25,2.2-.24s1.22-.98,1.71-1.47c1.3,.17,2.44-.32,3.42-1.46s1.79-2.11,2.44-2.93c0-.49,.37-.77,1.1-.85,.73-.08,1.26,.04,1.59,.36,.64-.49,1.25-.93,1.83-1.34,.56-.41,1.26-.45,2.07-.12,.33,1.63,.81,2.93,1.47,3.9-.82,.17-1.31,.49-1.47,.98-.16,.49-.65,.57-1.46,.24-.66,.17-1.02,.37-1.1,.61-.09,.25-.12,.49-.12,.74s-.13,.45-.37,.61c-.24,.16-.94,.73-2.08,1.71-.65,0-1.26,.28-1.83,.85s-1.01,.53-1.34-.12c-.33,0-.41,.16-.24,.49,.16,.32-.58,.81-2.2,1.46,.16,.82-.21,1.43-1.1,1.83-.9,.41-1.43,1.02-1.59,1.83-1.46,0-2.52,.49-3.17,1.47Zm17.58-9.52c-.17,.65-.53,1.1-1.1,1.34-.57,.24-1.02,1.18-1.34,2.81-.49,.16-1.02,.24-1.59,.24s-.94-.81-1.1-2.44c2.44-.32,4.15-.98,5.13-1.95Zm-6.11,7.08c-.65-.49-1.22-.49-1.7,0-.49,.49-.98,.57-1.47,.24-.65,1.79-1.79,2.44-3.42,1.95,0-.48,.13-.81,.37-.97,.24-.16,.57-.33,.98-.49,.4-.16,.69-.37,.85-.61,.16-.25,.65-.45,1.47-.61,.32-.49,.61-.89,.85-1.22,.24-.33,.53-.73,.85-1.22,.33,.33,.65,.81,.98,1.46,.32,.65,.4,1.14,.24,1.47Zm5.01,29.29c.08,1.47-.77,1.96-2.56,1.47,.16-.81,.44-1.38,.85-1.71,.35-.28,1.11-1.06,2.27-2.33-.44,.64-.62,1.5-.56,2.57Zm.57-2.59c.14-.22,.32-.41,.53-.58-.18,.2-.36,.4-.53,.58Zm1.87-4.73c-.57,.98-1.26,1.83-2.07,2.56-.82,.74-1.71,.94-2.69,.61-.16-.81,.28-1.62,1.34-2.44,1.06-.81,1.35-1.79,.86-2.93,.32-.65,.85-1.05,1.58-1.22,.74-.16,.94-.73,.61-1.71,.82,.33,1.23,1.02,1.23,2.08s-.29,2.07-.86,3.05Zm1.83-11.35c-1.14,1.71-2.6,3.29-4.39,4.76-1.14-.49-2.04-.41-2.69,.24-.65,.65-1.55,1.14-2.68,1.47,.64,.65,1.34,.57,2.07-.25,.73-.81,1.1-.73,1.1,.25,.32,.16,.53,.57,.61,1.22,.08,.65-.04,1.22-.37,1.71-.81-.33-1.42-.33-1.83,0-.4,.32-.69,.81-.85,1.46-.17,.65-.37,1.26-.61,1.83-.25,.57-.7,.94-1.34,1.1-.17-.81-.37-1.46-.61-1.95-.25-.49,.12-1.38,1.09-2.69-.32-.32-.65-.69-.97-1.1-.33-.4-.82-.61-1.47-.61,.16-.48,.33-.93,.49-1.34,.16-.4,.81-1.01,1.95-1.83,.49-1.47,1.38-2.64,2.69-3.54,1.3-.89,2.52-1.83,3.66-2.81-.33-.32-.77-.24-1.34,.25-.57,.48-1.02,.4-1.34-.25,0-.81,1.3-1.22,3.9-1.22,.33-.32,.65-.73,.98-1.22,.32-.49,.73-.89,1.22-1.22,.32,.82,.65,.9,.98,.24,.32-.64,.89-1.05,1.71-1.22-.17,2.77-.82,5.01-1.96,6.72Zm-7.32-4.4c.65-.24,1.3-.61,1.95-1.1-.16,.82-.45,1.27-.85,1.35-.41,.08-.78,.28-1.1,.61-.65-.33-.65-.61,0-.86Zm9.28-5.98c-.82,.33-1.55,.65-2.2,.98s-1.71,1.22-3.18,2.68c-1.62-.49-3.09-.08-4.39,1.22s-2.85,2.12-4.64,2.45c.81,0,1.38,.08,1.71,.24,.32,.16,1.14,.08,2.44-.24-.65,1.62-1.67,2.8-3.05,3.54-1.12,.59-2.59,1.21-4.4,1.85-.4,.18-.85,.34-1.34,.46,.47-.15,.91-.31,1.34-.46,.68-.32,1.25-.73,1.71-1.24,.74-.82,1.84-1.55,3.3-2.2-.33-.81-.82-1.06-1.46-.73-.66,.32-1.07,.08-1.23-.74-.65,.33-1.34,.66-2.07,.98-.73,.33-1.34,.65-1.83,.98,.32-1.79,1.34-3.22,3.05-4.28,1.71-1.05,3.78-2.64,6.23-4.76,.32-.32,.97-.64,1.95-.97,.98-.33,1.06-.82,.24-1.47,.49,.33,.94,.37,1.35,.12,.4-.24,1.09-1.01,2.07-2.32,.49,.33,1.02,.25,1.59-.24s1.01-.57,1.34-.24c-.33,.81-.08,1.55,.73,2.19,.82,.66,1.06,1.39,.74,2.2Zm3.78-7.93c-.08,1.06-.53,1.91-1.34,2.56-1.14-1.3-1.51-2.64-1.1-4.03,.4-1.38,1.58-1.83,3.54-1.34-.65,.82-1.02,1.75-1.1,2.81Zm21.36-75.44c-1.3,.41-2.6,.94-3.9,1.58-.49-.16-.74-.56-.74-1.22s-.08-1.54-.24-2.68c1.46,.81,2.72,.85,3.78,.12,1.06-.73,2.24-.93,3.54-.61-.33,1.46-1.14,2.4-2.44,2.81Zm-49.31,66.04c.16,.65,0,.97-.49,.97s-.49,1.06,0,3.18c.49-1.3,1.38-1.96,2.68-1.96,0-.32-.73-1.05-2.19-2.19Zm-11.36-42.61c.41-.73,.2-1.01-.61-.85-.49,.33-.97,.61-1.46,.85-.49,.25-1.14,.21-1.96-.12-.32,.33-.24,.65,.25,.98,.49,.33,.98,.82,1.46,1.46,0-.16,.98-.4,2.93-.73-.81-.32-1.02-.85-.61-1.59Zm-16.49,145.98c-.08,.12-.15,.25-.23,.39,.32,0,.4-.13,.24-.37,0-.01-.01-.01-.01-.02Z"/>
      <path class="cls-1" d="M382.39,392.19c-.32-.25-.73-.37-1.22-.37,0,.49,.37,.98,1.1,1.46,.74,.49,1.26,.25,1.59-.73-.65,0-1.14-.12-1.47-.36Zm-1.83-4.28c-.57,.17-.93,.66-1.09,1.47,1.62,.33,2.68,.33,3.17,0v-1.96c-.82,.17-1.51,.33-2.08,.49Zm-7.44,40.77c-.08,.47-.21,.82-.4,1.06,.28-.09,.57-.16,.89-.2,.64-.08,1.05-.61,1.22-1.59-.98-.49-1.55-.24-1.71,.73Zm-.4,1.06c-.29,.1-.57,.24-.82,.41,.34,0,.61-.14,.82-.41Zm.4-1.06c-.08,.47-.21,.82-.4,1.06,.28-.09,.57-.16,.89-.2,.64-.08,1.05-.61,1.22-1.59-.98-.49-1.55-.24-1.71,.73Zm-.4,1.06c-.29,.1-.57,.24-.82,.41,.34,0,.61-.14,.82-.41Zm9.67-37.55c-.32-.25-.73-.37-1.22-.37,0,.49,.37,.98,1.1,1.46,.74,.49,1.26,.25,1.59-.73-.65,0-1.14-.12-1.47-.36Zm.25-2.81v-1.96c-.82,.17-1.51,.33-2.08,.49-.57,.17-.93,.66-1.09,1.47,1.62,.33,2.68,.33,3.17,0Zm-75.07-11.48c-1.06,.17-1.43,.58-1.1,1.22,.16-.81,.65-1.01,1.46-.61,.81,.41,1.38,.45,1.71,.13-.33-.65-1.02-.9-2.07-.74Zm0,0c-1.06,.17-1.43,.58-1.1,1.22,.16-.81,.65-1.01,1.46-.61,.81,.41,1.38,.45,1.71,.13-.33-.65-1.02-.9-2.07-.74Zm108.52,67.39c-.82,.32-1.59,.65-2.32,.97-.74,.33-1.51,.65-2.32,.98-.65-.49-1.47-.73-2.44-.73h-3.06c-1.06,0-2.03-.08-2.93-.25-.89-.16-1.34-.89-1.34-2.19-1.3,.16-2.24,.16-2.81,0-.57-.17-1.26-.41-2.07-.74-1.47-2.44-2.24-4.64-2.32-6.59s.45-4.39,1.59-7.32c-.82-.33-1.1-.74-.86-1.22,.25-.49-.12-1.3-1.1-2.45,.16-.64,.13-1.42-.12-2.31-.24-.9-.45-1.67-.61-2.32,0-.33,.12-.49,.37-.49s.2-.73-.12-2.2c.32-.81,.64-1.67,.97-2.56,.33-.9,1.14-2.16,2.44-3.79,.49,.33,.82,.53,.98,.61,.16,.09,.73-.61,1.71-2.07-.65-.81-1.51-1.06-2.56-.73-1.07,.32-2.57,1.14-4.52,2.44-.49-1.14-.41-2.04,.24-2.69s.57-1.46-.24-2.44c.81-.65,1.67-1.26,2.56-1.83s1.26-1.26,1.1-2.08c.49,.33,.89,.45,1.22,.37,.33-.08,.81-.69,1.47-1.83,.81-.16,1.95-.73,3.41-1.71,.33-.65,.21-.98-.36-.98s-1.34-.73-2.32-2.19c.32,.81,.4,1.5,.24,2.07-.16,.57-.41,1.06-.73,1.47-.33,.4-.65,.77-.98,1.09-.32,.33-.4,.66-.24,.98-.82-.49-1.71-.32-2.69,.49-.97,.82-1.95,1.79-2.93,2.93-.32-.16-.53-.53-.61-1.1s-.12-1.5-.12-2.81c.16-.16,.49-1.05,.98-2.68,.32-.16,1.01-.28,2.07-.37,1.06-.08,2-.37,2.81-.85-.81-.65-1.91-.77-3.29-.37-1.39,.41-2.32,.37-2.81-.12,.32-.98,.65-1.95,.97-2.93,.33-.98,.65-2.2,.98-3.66,.81-.33,1.47-.69,1.95-1.1,.49-.41,1.71-.94,3.67-1.59,0-.16-.09-.57-.25-1.22-.16-.65-.24-1.14-.24-1.46-.98,.81-1.92,1.22-2.81,1.22s-2.24-.65-4.03-1.96c.65-1.13,1.26-2.27,1.83-3.41,.57-1.14,.69-1.87,.37-2.2-.82-.81-1.06-2.44-.73-4.88-.82-.49-1.19-1.39-1.1-2.69,.08-1.3,.52-2.2,1.34-2.69-.33-.32-.53-.69-.61-1.09-.08-.41,.69-1.02,2.32-1.84-.16-.48-.24-.97-.24-1.46s-.09-.89-.25-1.22c.33,.33,.81,.49,1.47,.49s1.13-.16,1.46-.49c0-1.3-.16-2.36-.49-3.18-.81,.33-1.46,.54-1.95,.62s-1.06,.36-1.71,.85c-.82-.81-1.18-1.79-1.1-2.93s-.28-2.11-1.1-2.93c0-.81,.25-1.5,.74-2.07,.48-.57,.97-1.18,1.46-1.84,.49-.64,.81-1.3,.98-1.95,.16-.65,0-1.38-.49-2.2-.49,.33-1.06,.33-1.71,0-.65-.32-1.14-.56-1.46-.73v-1.95c0-.81-.82-1.63-2.45-2.44,0-.33,.08-.49,.25-.49,.16,0-.25-.81-1.22-2.44-.65-.16-1.35-.29-2.08-.37-.73-.08-1.18-.93-1.34-2.56-.65-.16-1.1-.45-1.34-.86-.25-.4-.86-.36-1.83,.12-.66-.32-.94-.73-.86-1.22,.08-.48-.04-.97-.36-1.46-.82,0-1.47-.16-1.96-.49-.49-.32-1.22-.32-2.2,0,.16-1.14-.2-1.87-1.09-2.2-.9-.32-1.83-.89-2.81-1.71-.82,.33-1.71,.21-2.69-.36-.97-.57-1.87-.45-2.68,.36-3.42-.81-7.08-.93-10.99-.36-3.91,.57-7.49,1.26-10.74,2.07-1.95,.49-3.66,1.19-5.13,2.08-1.46,.9-2.81,1.83-4.03,2.81-1.22,.97-2.48,1.95-3.78,2.93-1.31,.97-2.77,1.87-4.4,2.68,.17,0,0,.98-.48,2.93-.82,0-1.47,.25-1.96,.73-.48,.49-1.55-.08-3.17-1.7-.33-1.31-.04-2.16,.85-2.57,.9-.4,1.51-1.01,1.84-1.83,.32,.33,.56,.29,.73-.12,.16-.41,1.05-1.1,2.68-2.08,.16-.65,.08-1.05-.24-1.22-.33-.16-1.22-.32-2.69-.49-.81-.48-1.22-1.3-1.22-2.44s-.49-2.03-1.46-2.68c-4.24,1.46-8.75,2.24-13.55,2.32s-9.89,.12-15.26,.12c0-.49-.9-.25-2.69,.73-2.77-.81-5.7-1.1-8.79-.85-.75,.06-1.49,.1-2.21,.12-2.25,.08-4.36,0-6.33-.25-.82,.49-1.63,.86-2.44,1.1-.82,.25-1.22,1.02-1.22,2.32,.36,.61,.81,.96,1.34,1.07,.19,.05,.39,.05,.61,.03,.81-.08,1.63,.04,2.44,.37,.47-.39,1.04-.63,1.73-.72,.49-.07,1.04-.06,1.65,.02,.32,.05,.66,.12,1.02,.21,1.95,.49,3.17,1.38,3.66,2.68,0,.82,.16,1.71,.49,2.69,1.13,.16,1.91-.04,2.32-.61,.4-.57,1.26-.69,2.56-.37,.32,.66,.65,1.27,.98,1.83,.32,.58,.64,1.19,.97,1.84-.81,.65-1.26,1.54-1.34,2.68-.08,1.14,.77,2.28,2.56,3.42,.33,3.09,.04,5.82-.85,8.18-.9,2.36-1.83,5.17-2.81,8.42,.33,.16,.73,.33,1.22,.49,.49,.16,.98,.24,1.47,.24-.33,2.28-.17,4.73,.49,7.33,.64,2.6,.81,4.96,.48,7.08-.16,.97-.53,1.87-1.09,2.68-.58,.82-.7,1.63-.37,2.44,.81,.17,1.3,.61,1.46,1.35,.16,.73,.25,1.58,.25,2.56-.98,.49-1.88,1.1-2.69,1.83-.81,.73-1.79,1.34-2.93,1.83,.33,.82,.69,1.59,1.1,2.32,.41,.73,.61,1.43,.61,2.08,.81-.16,1.3-.2,1.47-.12,.16,.08,.64,.12,1.46,.12,.33,.65,.49,1.46,.49,2.44s.24,1.79,.73,2.44c-1.46,3.75-1.91,7.69-1.34,11.84,.57,4.15,.61,8.1,.12,11.84,.81,.98,1.26,2.36,1.34,4.15,.08,1.8,.13,3.58,.13,5.37-.82,1.31-1.83,2.24-3.06,2.81-1.22,.57-2.31,2-3.29,4.27-.82,.66-1.95,1.06-3.42,1.22-1.46,.17-2.85,.37-4.15,.61-1.3,.25-2.44,.7-3.42,1.35-.97,.65-1.38,1.71-1.22,3.17,1.14,.17,2.11,.29,2.93,.37,.81,.08,1.47-.28,1.95-1.1,.33,.82,.9,1.14,1.71,.98,.82-.16,1.22,.32,1.22,1.46,1.79-.32,3.3-.77,4.52-1.34,1.22-.57,2.48-1.1,3.78-1.59,3.58,.16,7,.49,10.26,.98,3.25,.49,6.35,.73,9.28,.73,1.3,0,2.8,.04,4.51,.12,1.71,.09,3.54,.04,5.5-.12,2.93-.49,5.61-.57,8.05-.24,2.44,.32,5.21,.32,8.3,0,.16-.65,.33-1.51,.49-2.57,.16-1.05,.41-1.99,.73-2.81-2.28-.64-4.68-1.09-7.2-1.34-2.52-.24-4.27-1.26-5.25-3.05,0-2.6-.41-5.53-1.22-8.79-.81-3.25-1.3-6.75-1.46-10.5,.32-.16,.61-.36,.85-.61,.25-.24,.45-1.18,.61-2.81,.98,.33,1.59,.21,1.83-.36,.25-.57,1.26-1.67,3.05-3.3-.16-.32-.69-.69-1.58-1.1-.9-.4-1.34,.29-1.34,2.08-.33,.33-.37,.61-.13,.85s-.61,.45-2.56,.61c.16-.64-.08-1.01-.73-1.09-.66-.08-.9-1.02-.74-2.81-.32-1.3-.24-2.77,.25-4.4,.49-1.62,.24-3.01-.73-4.15,.32-1.3,.52-2.48,.61-3.54,.08-1.05,.69-1.99,1.83-2.81-.33-.97-.65-1.83-.98-2.56-.33-.73-.82-1.42-1.46-2.07,.16-1.3,.24-2.65,.24-4.03s.57-2.89,1.71-4.52c1.3,.33,1.91,.09,1.83-.73-.08-.81,.2-1.3,.86-1.47-.66-.32-1.27-.48-1.84-.48s-1.34-.08-2.32-.25c-.32-.49-.48-1.14-.48-1.95s.48-1.63,1.46-2.44c-.16-.98-.08-1.67,.25-2.08,.32-.4,.16-1.34-.49-2.81,0-.32,.12-.44,.36-.36,.25,.08-.28-.61-1.58-2.08,.32-1.13,.64-2.11,.97-2.93,.33-.81,.33-2.19,0-4.15,0-.32,.16-.44,.49-.36,.33,.08,.16-.77-.49-2.57,.65-.49,1.02-1.22,1.1-2.19,.08-.98,1.1-1.87,3.05-2.69,.33-.98,.77-1.62,1.35-1.95,.56-.33,.52-1.3-.13-2.93,.33-.81,.69-1.63,1.1-2.44,.41-.82,1.1-1.38,2.08-1.71-.17-.98,.08-1.63,.73-1.96,.65-.32,1.22-.73,1.71-1.22,1.3-1.3,2.77-2.76,4.39-4.39,1.63-1.63,3.09-2.6,4.4-2.93,1.14-.33,2.28-.45,3.42-.37,1.13,.09,2.03-.52,2.68-1.83,1.14-.32,2.04-.44,2.69-.36,.65,.08,1.87,.28,3.66,.61,1.95-.49,3.46,.04,4.52,1.58,1.05,1.55,1.99,2.97,2.8,4.28-.48,.48-.73,.97-.73,1.46s-.57,.82-1.71,.98c0,.65,.2,1.06,.61,1.22,.41,.16,.29,.65-.36,1.46,.65-.32,1.01-.32,1.1,0,.08,.33,.77-.08,2.07-1.22,1.14,.17,1.83,.53,2.08,1.1,.24,.57,.28,1.22,.12,1.95-.17,.74-.29,1.51-.37,2.32-.08,.82,.37,2.2,1.34,4.15,.82,2.12,.74,3.67-.24,4.64-.98,.98-1.79,2.04-2.44,3.18,1.3,.81,2.11,1.7,2.44,2.68,.32,.98,.4,2.08,.24,3.3-.16,1.22-.45,2.52-.85,3.9-.41,1.39-.69,2.81-.85,4.28,.81,1.3,1.46,3.05,1.95,5.24,.49,2.2,.65,4.28,.49,6.23,0,.82-.17,1.67-.49,2.56-.33,.9-.49,1.75-.49,2.57,0,1.79,.04,3.5,.12,5.12,.08,1.63-.12,3.02-.61,4.15-.16,.33-.36,.53-.61,.61-.24,.09-1.18,.13-2.81,.13,0,.65-.24,1.06-.73,1.22-.49,.16-.33,.97,.49,2.44,.65-.65,1.22-1.02,1.71-1.1s1.38-.12,2.68-.12c.16,.81,.16,1.67,0,2.56-.16,.9-.08,1.59,.25,2.08-.65,.81-.9,1.71-.73,2.68,.16,.98,.4,2.04,.73,3.18,.32,1.14,.61,2.4,.85,3.78,.25,1.39,.21,2.81-.12,4.27-.65,.66-1.02,1.39-1.1,2.2-.08,.82-.04,1.63,.12,2.44,.16,.82,.29,1.59,.37,2.32,.08,.73,.04,1.43-.12,2.08,0,.32-.21,.89-.61,1.71-.41,.81-1.1,1.46-2.08,1.95-.33,.81-.24,1.63,.25,2.44,.49,.82,.65,1.79,.49,2.93-.17,2.12-.94,3.46-2.32,4.03-1.39,.57-2.93,.97-4.64,1.22-1.71,.24-3.26,.65-4.64,1.22-1.39,.57-2.08,1.91-2.08,4.03,1.79,.65,3.83,.77,6.11,.36,2.27-.4,4.06-1.09,5.37-2.07,1.46,0,2.6,.2,3.42,.61,.81,.41,1.95,.45,3.41,.12,.49,.65,1.1,.9,1.83,.73,.74-.16,1.51-.36,2.32-.61,.82-.24,1.63-.36,2.45-.36s1.54,.41,2.19,1.22c.49,.16,.65,0,.49-.49-.16-.49,.73-.57,2.69-.24,.16,.81,.65,1.01,1.46,.61,.81-.41,1.47-.69,1.95-.86,.65,.33,1.43,.41,2.32,.25,.9-.16,2.4-.41,4.52-.74,.32,.49,.73,.7,1.22,.61,.49-.08,1.06-.16,1.71-.24,.65-.08,1.3-.12,1.95-.12s1.3,.24,1.96,.73c.81-.65,1.66-.94,2.56-.86,.89,.09,1.83,.25,2.81,.49,.97,.25,1.95,.45,2.93,.61,.97,.17,2.68-.24,5.12-1.22,.65-.16,1.43-.24,2.32-.24s1.75-.04,2.57-.12c.81-.08,1.54-.37,2.19-.86,.65-.49,.98-1.3,.98-2.44l-1.46-1.46Zm-118.9-105.11c1.3-.4,2.11-.12,2.44,.86-.82,0-1.51,.2-2.07,.61-.58,.41-1.27,.53-2.08,.36-.16-.81,.41-1.42,1.71-1.83Zm-2.69,8.91c.33-.32,.49-.89,.49-1.7,.98,0,1.75-.16,2.32-.49,.57-.33,1.34-.82,2.32-1.47,.81-.32,1.5-.73,2.08-1.22,.56-.49,1.09-.89,1.58-1.22,.82,.16,1.51,.25,2.08,.25s1.26-.17,2.07-.49c-1.63-.33-2.44-.74-2.44-1.22,.49-.98,1.63-1.14,3.42-.49,.49-.16,1.01-.45,1.59-.86,.57-.4,1.01-.28,1.34,.37,.32,0,.37-.24,.12-.73-.24-.49-1.1-.82-2.56-.98,.32-.65,.81-.98,1.46-.98s1.22,.17,1.71,.49c-.16-.49-.08-.93,.25-1.34,.32-.4,.73-.73,1.22-.98,.49-.24,.93-.57,1.34-.97,.4-.41,.69-.86,.85-1.35,.33,0,.77-.03,1.35-.12,.57-.08,1.01,.04,1.34,.37-.33,.81-.65,1.5-.98,2.07-.32,.58-.57,1.27-.73,2.08-.82,.16-1.3,0-1.46-.49-.17-.49-.9-.24-2.2,.73,.49,.65,.53,1.14,.12,1.47-.41,.33-.37,.89,.12,1.71-1.14,.32-2.07,.65-2.8,.97-.74,.33-1.27,.9-1.59,1.71-.82,.82-1.67,1.34-2.57,1.59-.89,.24-1.58,.77-2.07,1.59-.98-.33-1.75-.16-2.32,.48-.57,.66-1.75,1.47-3.54,2.45-1.46-.17-2.85,0-4.15,.48-.16-.81-.08-1.38,.24-1.71Zm-.48,7.69c.32-.56,.77-1.01,1.34-1.34,.57-.32,1.18-.4,1.83-.24,1.14-.81,2.15-1.59,3.05-2.32,.89-.73,2.08-1.83,3.54-3.3,.81-.16,1.47-.12,1.95,.12,.49,.25,.98,.05,1.47-.61,.81,.49,1.46,.53,1.95,.13,.49-.41,.65-1.26,.49-2.57,.98-.49,2.03-1.13,3.17-1.95,1.14-.81,2.61-.49,4.4,.98,0,.48-.16,.89-.49,1.22-.33,.33-.49,.97-.49,1.95-.33,.49-.89,.69-1.71,.61-.81-.08-1.06,.45-.73,1.59-.49,.16-.73,0-.73-.49s-.57,.08-1.71,1.71c-1.46-.33-2.85,.08-4.15,1.22-1.31,1.14-2.69,1.79-4.15,1.95-1.14,1.14-2.4,2.12-3.79,2.93-1.38,.82-2.89,1.31-4.51,1.47-.65-.16-1.02-.57-1.1-1.22s.04-1.26,.37-1.84Zm5.12,75.32c-.49,.33-1.55,1.14-3.17,2.44-.33-.81-.45-1.58-.37-2.32,.08-.73,.12-1.66,.12-2.8,.33-.16,.65-.33,.98-.49,.33-.16,.73-.89,1.22-2.2,.98,0,1.75-.28,2.32-.85s1.34-1.02,2.32-1.35c-.82-.32-1.46-.44-1.95-.36s-1.14,.2-1.96,.36c-.16-.32-.36-.73-.61-1.22-.24-.49,.61-.97,2.57-1.46,.32,.33,.85,.45,1.58,.36,.74-.08,1.1-.52,1.1-1.34,1.47-1.79,3.05-3.33,4.76-4.64,1.71-1.3,4.19-2.68,7.45-4.15,.32,2.28,.49,4.24,.49,5.86-.33,2.93-1.51,4.88-3.54,5.86-2.04,.98-3.38,2.61-4.03,4.88-.49,.17-1.14,.21-1.95,.13-.82-.08-1.47,.36-1.96,1.34-.48-.49-1.09-.37-1.83,.37-.73,.73-1.91,1.26-3.54,1.58Zm1.47,4.89c-.33,.65-.7,1.26-1.1,1.83-.41,.57-.86,.45-1.34-.37,.48-.16,.81-.45,.97-.85,.16-.41,.65-.61,1.47-.61Zm13.67-81.67c-.65-.89-1.55-1.26-2.69-1.1,.65-.65,1.35-.81,2.08-.49,.73,.33,1.5,.66,2.32,.98-.49,1.3-1.06,1.51-1.71,.61Zm1.22,2.56l-.49,1.22c-.49-.16-.85-.4-1.1-.73-.24-.32-1.34-.32-3.29,0,0-.81,.32-1.22,.97-1.22s1.14-.24,1.47-.73c.65,0,1.01,.28,1.1,.85,.08,.58,.52,.78,1.34,.61Zm-10.99,74.22c.16,.98,.74,1.18,1.71,.61,.98-.57,1.63-.69,1.96-.36l-1.47,1.95c-.49,0-1.06,.04-1.71,.12-.65,.09-.81-.69-.49-2.32Zm1.22-.73c0-.81,.74-1.26,2.2-1.34,1.47-.08,2.44-.69,2.93-1.83,0-.49-.08-.9-.24-1.22-.17-.33,.4-1.06,1.71-2.2,1.3-.16,2.15-.16,2.56,0,.4,.16,.93,.49,1.59,.97,.16,1.15-.13,1.84-.86,2.08-.73,.24-1.58,1.18-2.56,2.81-1.31,0-2.48,.08-3.54,.24-1.06,.17-2.32,.33-3.79,.49Zm1.71-69.09c-.48-.33-.89-.28-1.22,.12-.33,.41-.73,.85-1.22,1.34-.81,.49-1.5,.82-2.07,.98-.58,.16-1.59,.41-3.05,.73-.17,.98-.62,1.59-1.35,1.83-.73,.25-1.42,.86-2.07,1.83-.98-.16-1.88-.08-2.69,.25-.16-1.14,.04-1.87,.61-2.2,.57-.32,.77-1.14,.61-2.44,1.3-1.14,2.89-1.87,4.76-2.2,1.87-.32,3.14-1.22,3.79-2.68,.32,.65,.85,.94,1.58,.85,.74-.08,1.26-.69,1.59-1.83,.33,.16,.61,.16,.86,0,.24-.16,1.17-.32,2.8-.49-.48,.65-1.18,1.26-2.07,1.83-.9,.58-1.18,1.27-.86,2.08Zm-.73-6.35c.81,.16,1.3,0,1.47-.49,.16-.49,.64-.24,1.46,.73-.49,.17-.94,.33-1.34,.49-.41,.17-.94-.08-1.59-.73Zm-12.82,22.71c-.24-.98-.28-2.2-.12-3.67,.81,0,1.42-.28,1.83-.85,.41-.57,1.67-1.42,3.79-2.56,1.62,0,2.84-.29,3.66-.86,.81-.57,1.79-1.01,2.93-1.34,.32-.65,1.06-.94,2.2-.86,1.13,.09,1.71-.36,1.71-1.34-.66,0-1.35-.04-2.08-.12-.73-.08-1.43-.28-2.08-.61,.16-.49,.41-.86,.74-1.1,.32-.24,1.13-1.26,2.44-3.05,.49-.16,.77-.08,.85,.24,.08,.33,.94,.17,2.57-.49,.48-.48,.97-.93,1.46-1.34,.49-.4,1.14-.45,1.95-.12,0,.65-.08,1.14-.24,1.46-.16,.33-.08,.82,.24,1.47-.81,.82-1.75,1.14-2.8,.98-1.06-.16-1.75,.08-2.08,.73,.49-.16,1.06-.08,1.71,.24,.65,.33,1.3,.65,1.95,.98-.16,.65-.48,1.06-.97,1.22-.49,.16-1.06,.98-1.71,2.44-.49-.49-.86-.57-1.1-.24-.24,.32-.77,.4-1.59,.24,0,1.14,.53,1.71,1.59,1.71s1.99-.24,2.81-.73c.65,0,1.1,.24,1.34,.73s.32,.98,.24,1.46c-.08,.49-.36,.9-.85,1.23-.4,.26-.97,.82-1.71,1.64,.16-.12,.33-.18,.49-.18,.32,0,.98,.57,1.95,1.71-.33,.65-.89,1.1-1.71,1.34-.81,.25-1.14,.78-.97,1.59-2.28,.16-3.99,1.55-5.13,4.15-.49-.16-.98-.25-1.47-.25s-1.14,.58-1.95,1.71c-1.3,1.31-2.81,2-4.52,2.08-1.7,.08-3.29,.45-4.76,1.1-.32-1.14-.16-1.99,.49-2.57,.65-.56,.81-1.25,.49-2.07,.32-.33,.86-.45,1.59-.37,.73,.09,1.1-.28,1.1-1.1,.64,.33,1.22,.29,1.71-.12,.48-.4,1.05-.77,1.7-1.1-.48-.32-1.01-.4-1.58-.24-.57,.16-1.02-.08-1.35-.73,.33-.49,.74-.77,1.23-.86,.48-.08,1.3-.36,2.44-.85,.16-.49,.4-.81,.73-.98,.32-.16,.65-1.06,.98-2.68,.64,.81,1.46,.93,2.44,.36,.97-.57,1.22-1.26,.73-2.07,.81-.16,1.3-.08,1.46,.24,.16,.33,.57,.41,1.23,.25,.64,0,.97-.33,.97-.98s-.57-1.3-1.71-1.95c-.65,0-1.14,.12-1.46,.36-.33,.25-1.39,.86-3.18,1.83-.97,.49-1.75,1.27-2.32,2.32-.57,1.06-1.18,1.34-1.83,.86-.48,.65-1.06,1.34-1.71,2.07-.65,.73-1.46,.86-2.44,.37-.32,.33-.65,.73-.97,1.22-.33,.49-.82,.73-1.47,.73,.33-.81,.37-1.71,.12-2.68Zm20.88,7.32l-.49,1.71c-.82-.33-1.71-.57-2.69-.73-.97-.16-2.36,.24-4.15,1.22,.65,.49,1.22,.53,1.71,.12,.49-.41,1.79-.45,3.91-.12-.82,.33-1.55,.69-2.2,1.1-.65,.4-1.14,.69-1.46,.85-.98,.82-2.04,2.04-3.18,3.66-.81,.33-1.79,.9-2.93,1.71-.32,.49-.85,.61-1.58,.37-.74-.25-1.75-.28-3.06-.12-.81,.32-1.5,.81-2.07,1.46-.57,.65-1.34,.73-2.32,.24,.32-1.3,.93-2.15,1.83-2.56,.89-.4,1.75-.93,2.56-1.59-.16-.64-.32-1.54-.48-2.68,.64-.33,1.34-.37,2.07-.12,.73,.24,1.42-.13,2.08-1.1,.65,0,1.1-.16,1.34-.49,.24-.32,.69-.57,1.34-.73,0-.16-.04-.37-.12-.61-.08-.25,.28-.94,1.1-2.08,.65,.49,1.18,.45,1.59-.12,.4-.57,1.74-1.26,4.02-2.08,.33-.32,.49-.61,.49-.85s.49-.85,1.47-1.83c1.3,0,1.79,.61,1.46,1.83-.33,1.22-.41,2.4-.24,3.54Zm-7.69,15.38c-1.06-.49-1.19-1.14-.37-1.95,.49,.81,1.3,1.3,2.44,1.46-.33,.82-1.02,.98-2.07,.49Zm.12,4.15c-.33-.32-.61-.53-.86-.61-.24-.08-.93-.53-2.07-1.34,.81-.65,1.71-.65,2.69,0,.97,.65,1.05,1.3,.24,1.95Zm1.71-6.1c.49-1.3,1.62-1.96,3.42-1.96-.17,.82-.58,1.31-1.22,1.47-.66,.16-1.39,.33-2.2,.49Zm-6.11,2.19c-.81-.32-1.38-.56-1.7-.73,0-.65,.36-.73,1.09-.24,.74,.49,1.26,.57,1.59,.24,.16,.82-.16,1.06-.98,.73Zm-8.54,.74c-.33-.33-.24-.74,.24-1.22,.33,.16,.57,.24,.74,.24,.16,0,.65,.82,1.46,2.44l-2.2,.25c.16-.82,.08-1.38-.24-1.71Zm1.95,6.71c.82-.4,1.79-1.42,2.93-3.05,.33,0,.77,.04,1.35,.12,.56,.09,1.25,.12,2.07,.12,0,1.31-.49,2.53-1.46,3.67-.98-.33-1.88-.13-2.69,.61-.82,.73-2.28,.77-4.39,.12,.64-.65,1.38-1.18,2.19-1.59Zm-1.71,11.35c.33-.48,.74-.93,1.22-1.34,.49-.4,1.06-.77,1.71-1.1,.65-.32,.65-1.38,0-3.17,1.79,.33,2.97,.12,3.54-.61,.57-.73,1.59-1.1,3.06-1.1,0-.49-.21-.73-.61-.73s-.78-.98-1.1-2.93c1.13,.33,2.03,.2,2.68-.37,.65-.57,1.22-1.1,1.71-1.59,.33-.16,.69-.36,1.1-.61,.4-.24,.69-.93,.85-2.07,.82-.33,1.1-.81,.86-1.47-.25-.64,.12-1.05,1.1-1.22-.17,.82-.09,1.31,.24,1.47,.33,.16,.77,.12,1.34-.12,.57-.25,1.14-.53,1.71-.86,.57-.32,.94-.57,1.1-.73,.81,.65,1.1,1.34,.86,2.07-.25,.74-.53,1.51-.86,2.32-.81,.17-1.38,.49-1.71,.98-.33,.49-.61,1.02-.85,1.59-.25,.57-.49,1.14-.73,1.71-.25,.57-.94,1.5-2.08,2.8-.49-.16-1.79,.09-3.91,.74-.32,.32-.48,.69-.48,1.09s-.09,1.19-.25,2.32c-.65-.16-1.46-.12-2.44,.13-.98,.24-1.95,.61-2.93,1.09-.98,.49-1.79,1.07-2.44,1.71-.65,.66-1.55,1.39-2.69,2.2-.32-.98-.32-1.71,0-2.2Zm14.16,22.46c-3.25,.98-6.02,2.29-8.3,3.91-.81-.16-1.55-.37-2.19-.61-.66-.24-1.47-.28-2.45-.12-.32-.65-.16-1.14,.49-1.47,.65-.32,.82-.73,.49-1.22,1.3,0,2.52-.49,3.66-1.46,.98-.33,1.71-.77,2.2-1.34,.49-.57,1.71-1.43,3.66-2.57,.82,.33,1.43,.33,1.83,0,.41-.32,.94-.24,1.59,.25,.33-.33,.53-.65,.61-.98,.08-.33,.77-.89,2.08-1.71,.48-.81,.97-1.46,1.46-1.95s1.71-.9,3.66-1.22c.33,1.14,.16,1.83-.48,2.07-.66,.25-1.31,.61-1.96,1.1,.65,0,1.63,.24,2.93,.73-.33,1.14-.89,1.96-1.71,2.44-.81,.49-1.71,.94-2.68,1.35-.98,.41-1.92,.77-2.81,1.1-.9,.32-1.59,.89-2.08,1.7Zm15.14,4.4c-1.46-.33-2.93-.28-4.39,.12-1.47,.41-2.69,.21-3.67-.61-.48,.49-1.67,.73-3.54,.73s-2.4-.97-1.58-2.93c.65,.17,1.13,.05,1.46-.36,.33-.41,.81-1.26,1.47-2.57,.16-.81,.49-.97,.97-.48,.49,.48,.82,1.3,.98,2.44,.65-.16,1.14-.41,1.47-.74,.32-.32,.73-.64,1.22-.97,1.62,2.12,3.49,3.9,5.61,5.37Zm-1.59-97.78c-.17,.3-.62,.4-1.35,.31-.35,.17-.68,.1-.97-.19,.36,.09,.69,.16,.97,.19,.04-.02,.09-.04,.13-.07,.41-.24,1.18-.69,2.32-1.34-.49,.33-.85,.7-1.1,1.1Zm68,76.29c-1.14,.33-1.96,.9-2.44,1.71-1.14-.32-2.24-.32-3.3,0-1.06,.33-2,.74-2.81,1.22-.81,.49-1.63,.9-2.44,1.22-.82,.33-1.55,.25-2.2-.24,0-.49,.25-.73,.74-.73s1.13-.49,1.95-1.47c.49-.16,.73-.44,.73-.85v-1.1c0-.32,.04-.57,.12-.73,.08-.16,.37-.98,.86-2.44-.98,.32-1.83,.97-2.57,1.95-.73,.98-1.46,1.95-2.19,2.93-.73,.98-1.51,1.91-2.32,2.81-.82,.89-2.28,1.5-4.4,1.83-1.3,0-1.87-.77-1.71-2.32,.16-1.55,.74-3.3,1.71-5.25,1.3,0,2.24-.24,2.81-.73,.57-.49,1.02-1.14,1.34-1.96,.65,.33,1.26,.41,1.84,.25,.56-.16,1.5-.41,2.8-.73,.16-.82,.74-1.43,1.71-1.84,.98-.4,1.95-.77,2.93-1.09,.98-.33,1.63-.69,1.95-1.1,.33-.41-.89-1.1-3.66-2.08,.33-.65,.69-.93,1.1-.85,.41,.08,.86,.24,1.34,.49,.49,.24,.98,.45,1.47,.61,.49,.16,1.46-.08,2.93-.74,.32,0,.44,.17,.36,.49-.08,.33-.28,1.14-.61,2.44-1.62,.33-2.72,.98-3.29,1.96-.57,.97-1.34,1.79-2.32,2.44,.16,.33,.4,.57,.73,.73,.33,.16-.08,.98-1.22,2.44,.32-.32,.81-.52,1.47-.61,.64-.08,.81-.52,.48-1.34-.16-.33,.08-.49,.74-.49s1.13-.65,1.46-1.95c1.63,0,2.64,.41,3.05,1.22,.41,.81,.69,2.12,.86,3.9Zm-3.91-57.37c-.82,.17-1.22,.65-1.22,1.47-1.14,.16-2.24,.73-3.3,1.71-1.06,.97-1.83,1.87-2.31,2.68,.32,.33,.77,.37,1.34,.12,.57-.24,1.18-.36,1.83-.36,.49,.49,.93,.53,1.34,.12,.41-.41,1.1-1.02,2.08-1.83,.65-.16,1.71-.41,3.17-.73-.16,.97-.21,2.07-.12,3.29,.08,1.22,.04,2.4-.12,3.54-.17,1.14-.41,2.2-.74,3.18-.32,.97-.81,1.95-1.46,2.92-1.14-.32-2.04-.2-2.69,.37s-1.14,1.34-1.46,2.32c.81-.65,1.67-.98,2.56-.98s1.91-.16,3.05-.48c.49,1.3,.49,2.52,0,3.66-1.95,.33-3.33,.89-4.15,1.71,.65,.16,1.35,.36,2.08,.61,.73,.24,1.42-.04,2.07-.86,0,.98-.2,1.71-.61,2.2-.4,.49-.85,.9-1.34,1.22,0,.33,.16,.82,.49,1.47,.32,.65,0,1.54-.98,2.68-.81-.32-1.06-.77-.73-1.34,.32-.57,.32-1.26,0-2.08-.49,.66-1.1,1.14-1.83,1.47-.73,.33-1.26,.97-1.59,1.95-1.3,.33-2.52,1.14-3.66,2.44-1.14,1.31-2.36,2.36-3.66,3.18-1.31-.49-2.32-.29-3.05,.61-.74,.89-1.75,1.5-3.06,1.83-.97-1.79-.97-3.09,0-3.91,.98-.81,2.28-1.71,3.91-2.68-.33-.33-.65-.61-.98-.86-.32-.24,.41-1.01,2.2-2.32,.49,0,1.3,.04,2.44,.12,1.14,.09,2.28-1.09,3.42-3.54,.33,.17,.73,.33,1.22,.49,.49,.17,.65-.81,.49-2.93-.16-.49-.53-.77-1.1-.85s-1.43,.45-2.56,1.58c-.65-.32-1.39-.12-2.2,.62-.82,.73-.9,1.26-.24,1.58,0,.49-.29,.65-.86,.49-.57-.16-1.34-.08-2.32,.24-.49,.33-1.02,.61-1.58,.86-.58,.24-1.1,.53-1.59,.85-.82-1.13-1.1-2.27-.86-3.41,.25-1.14,.29-2.61,.13-4.4,1.3-1.3,2.44-2.52,3.41-3.66,.16-.81,.69-1.18,1.59-1.1,.89,.08,1.59-.04,2.08-.37-.17-.64-.21-1.09-.13-1.34,.08-.24,.13-.69,.13-1.34,1.3,.65,2.48,.28,3.54-1.1,1.05-1.38,2.23-2.32,3.54-2.81-.33-.49-.7-.69-1.1-.61-.41,.09-1.18-.36-2.32-1.34-1.31,1.46-2.85,2.52-4.64,3.17-1.79,.66-3.09,1.88-3.91,3.67-.81-.17-1.26,.04-1.34,.61s-.77,.12-2.07-1.35v-3.9c1.13,0,2.23-.65,3.29-1.96,1.06-1.3,2.65-2.35,4.76-3.17,0-.98,.28-1.59,.86-1.83,.57-.25,1.22-.41,1.95-.49,.73-.08,1.42-.24,2.08-.49,.64-.24,1.13-.85,1.46-1.83,.81-.16,1.46-.16,1.95,0,.49,.16,.98,.41,1.47,.73,.32,0,.52-.12,.61-.36,.08-.25,.52-.94,1.34-2.08,.81,0,1.26-.24,1.34-.73,.08-.49,.45-.73,1.1-.73,.49,.81,.45,1.58-.12,2.32-.57,.73-1.1,.93-1.59,.61,.33,.81,.08,1.3-.73,1.46Zm-10.25,10.74c.81,.24,1.5,.13,2.06-.29-.12,.13-.24,.27-.35,.42-.33,.4-.9,.36-1.71-.13Zm2.07-.3c.19-.24,.4-.46,.61-.67-.18,.27-.39,.5-.61,.67Zm-9.28,34.61c.41-.57,.7-1.26,.86-2.08,.65-.16,1.26-.28,1.83-.37,.57-.08,1.26-.03,2.08,.13-.33-.82-.37-1.35-.13-1.59,.25-.24,.21-.61-.12-1.1,.81,.16,1.38,.21,1.71,.12,.32-.08,.89-.2,1.71-.36-.33-.16-.24-.49,.24-.98,.49-.49,1.1-.93,1.83-1.34,.74-.41,1.55-.74,2.45-.98,.89-.24,1.5-.77,1.83-1.59-.49-.32-.49-.73,0-1.22,.49-.49,.57-1.3,.24-2.44,.33,.33,.61,.78,.86,1.34,.24,.58,.52,1.02,.85,1.35,.81,0,1.3-.16,1.47-.49,.16-.33,.73,.24,1.7,1.71,.33,1.79,.25,3.21-.24,4.27-.49,1.06-1.22,2.24-2.2,3.54-.81-.49-1.34-.53-1.58-.12-.25,.41-.61,1.1-1.1,2.07-.66-.32-1.22-.32-1.71,0-.49,.33-.98,.74-1.47,1.22-.48,.49-.97,.98-1.46,1.47s-1.06,1.3-1.71,2.44c-.82-.49-1.51-.65-2.08-.49-.57,.17-1.14,.49-1.7,.98-.58,.49-1.19,.98-1.84,1.46-.65,.49-1.3,.74-1.95,.74-.33-.33-.37-.74-.12-1.22,.24-.49,.28-1.31,.12-2.45-.33-.32-.53-.69-.61-1.09-.08-.41-.53-1.35-1.34-2.81,.65,.49,1.18,.45,1.58-.12Zm18.93-55.55c.81,.17,1.25,.66,1.34,1.47,.08,.81,.12,1.63,.12,2.44-.33,.16-.61,.33-.85,.49-.25,.16-.7,.89-1.35,2.2-.81,.32-1.46,.73-1.95,1.22-.49,.48-1.14,.16-1.95-.98-.49,.49-1.19,.77-2.08,.85-.89,.09-1.67,.86-2.32,2.32-.65-.49-1.34-.61-2.07-.36-.73,.24-1.19,.85-1.35,1.83-.97-.33-1.58-.2-1.83,.36-.24,.58-.85,.7-1.83,.37,1.96-1.95,3.82-3.91,5.62-5.86,.65-.16,1.42-.4,2.32-.73,.89-.33,1.26-1.14,1.1-2.44,1.3,.16,2.4-.28,3.29-1.35,.89-1.05,2.16-1.66,3.79-1.83Zm-.49-6.34c-.33,1.14-.86,2.03-1.59,2.68-.73,.65-1.55,1.26-2.44,1.83-.9,.57-1.75,1.19-2.56,1.83-.82,.66-1.39,1.47-1.71,2.44-2.12,.33-3.95,1.31-5.5,2.93-1.55,1.63-3.29,2.93-5.25,3.91-.32-.32-.45-.85-.36-1.59,.08-.73-.21-1.58-.86-2.56,.33,.49,.74,.41,1.22-.24,.49-.65,1.31-1.71,2.45-3.18,.48-.32,1.22-.61,2.19-.85,.98-.25,1.47-1.02,1.47-2.32,.32,.33,.73,.45,1.22,.36,.49-.08,1.46-.77,2.93-2.07,.81-.16,1.5-.49,2.07-.98,.57-.49,1.14-.97,1.71-1.46,.57-.49,1.22-.86,1.96-1.1,.73-.24,1.74-.12,3.05,.37Zm-2.44-2.69c0,.82-.45,1.22-1.35,1.22s-1.34-.4-1.34-1.22h2.69Zm-15.14-10.01c.98-.65,2.07-1.22,3.3-1.71,1.22-.49,2.23,.17,3.05,1.95,.32,.33,.57,.33,.73,0,.16-.32,.98-.24,2.44,.25,.65,.33,1.34,.82,2.08,1.46,.73,.66,1.42,1.47,2.07,2.45-.49,.65-.41,1.06,.25,1.22,.64,.16,.89,.73,.73,1.7l-1.71,1.96c-1.14-.16-1.95,0-2.44,.49-.49,.48-1.63,1.46-3.42,2.93-1.14,.32-2.16,.73-3.05,1.22-.9,.48-1.1,1.38-.61,2.68-.82,.33-1.59,.61-2.32,.86-.73,.24-1.51,.45-2.32,.61-.65-.16-.94-.65-.86-1.47,.08-.81-.04-1.46-.36-1.95,.32-.81,.73-1.67,1.22-2.56,.49-.9,.89-2.32,1.22-4.28,.49-.16,.81-.49,.98-.97,.16-.49,.48-.9,.97-1.22,1.3,1.3,2.28,1.62,2.93,.97,.49-.97,1.14-1.62,1.96-1.95,.81-.33,1.13-1.14,.97-2.44-.81-.49-1.5-.28-2.07,.61-.58,.89-1.35,1.67-2.32,2.32h-2.57c-.89,0-1.58,.57-2.07,1.71-.65-.33-1.18-.69-1.59-1.1-.41-.41-.77-.77-1.1-1.1-.32-.65-.36-1.02-.12-1.1,.25-.08,.69-.61,1.34-1.59,.33-.32,.65-.69,.98-1.1,.32-.4,.89-.69,1.71-.85Zm-7.08-1.95c-.65-.98-1.47-1.87-2.44-2.69,1.3-1.13,2.72-1.34,4.27-.61,1.55,.73,2.97,1.34,4.27,1.83,0,.49-.24,.73-.73,.73s-1.14,.82-1.95,2.45c-1.63-.16-2.77-.74-3.42-1.71Zm13.67,107.42c.16-.49,.12-.86-.12-1.1-.24-.24-.53-.45-.86-.61-.32-.16-.61-.32-.85-.49-.24-.16-.29-.49-.12-.97-.49,.32-.98,.77-1.47,1.34-.48,.57-1.06,.85-1.71,.85-.32,.33-.81,.78-1.46,1.35-.65,.57-1.31,1.01-1.95,1.34-.66,.33-1.27,.45-1.83,.36-.58-.08-.94-.93-1.1-2.56,.16-.32,.28-.61,.36-.85,.08-.25,.45-.94,1.1-2.08,.33-.81,1.22-1.54,2.69-2.2,.81-1.95,2.03-3.01,3.66-3.17,1.62-.16,3.01-1.3,4.15-3.42,0-.32,.2-.4,.61-.24,.4,.16,1.34,.08,2.81-.25,1.3-.16,2.23-.4,2.81-.73,.56-.32,1.74-.32,3.54,0-.17,1.31-.78,2.08-1.84,2.32-1.06,.25-1.91,.78-2.56,1.59,.65,.97,.65,1.75,0,2.32-.65,.57-.57,1.26,.24,2.07-.32,0-.61-.08-.85-.24-.24-.16-.85-1.06-1.83-2.69-.33,.82-1.1,1.51-2.32,2.08-1.22,.57-1.92,1.67-2.08,3.29,.65,.33,1.18,.37,1.59,.13,.41-.25,.94-.21,1.59,.12-.33-.81-.04-1.42,.85-1.83,.9-.41,1.91-.53,3.05-.37,.65-1.46,1.51-2.56,2.57-3.3,1.05-.73,1.5-1.83,1.34-3.29,.81,.33,1.59,.24,2.32-.25,.73-.48,1.5-.81,2.32-.97,0,1.3-.21,2.65-.61,4.03-.41,1.38-.21,2.56,.61,3.54-2.77,.97-5.54,1.95-8.3,2.93-2.77,.97-4.88,1.63-6.35,1.95Zm16.11,1.71c-1.79,.33-3.41,.57-4.88,.73-1.46,.16-3.17-.32-5.13-1.46h1.59c.73,0,1.59-.41,2.57-1.22,.32-.33,.56-.57,.73-.74,.16-.16,1.05-.4,2.68-.73,.82,.33,1.47,.69,1.96,1.1,.48,.41,.64,1.18,.48,2.32Zm-11.23-54.2c0,.49,.37,.98,1.1,1.46,.74,.49,1.26,.25,1.59-.73-.65,0-1.14-.12-1.47-.36-.32-.25-.73-.37-1.22-.37Zm-1.7-2.44c1.62,.33,2.68,.33,3.17,0v-1.96c-.82,.17-1.51,.33-2.08,.49-.57,.17-.93,.66-1.09,1.47Zm-6.35,39.3c-.08,.47-.21,.82-.4,1.06,.28-.09,.57-.16,.89-.2,.64-.08,1.05-.61,1.22-1.59-.98-.49-1.55-.24-1.71,.73Zm-.4,1.06c-.29,.1-.57,.24-.82,.41,.34,0,.61-.14,.82-.41Zm-65.15-51.84c-1.06,.17-1.43,.58-1.1,1.22,.16-.81,.65-1.01,1.46-.61,.81,.41,1.38,.45,1.71,.13-.33-.65-1.02-.9-2.07-.74Z"/>
      <path class="cls-1" d="M515.33,369.97c-.57,.08-1.18-.04-1.83-.37-.26,.51-.62,1.13-1.09,1.85,.12-.03,.24-.08,.36-.14,.64-.16,1.46-.16,2.44,0,.97,.17,1.62-.16,1.95-.98-.65-.32-1.26-.44-1.83-.36Zm-3.3,2.07c.14-.2,.27-.4,.38-.59-.21,.08-.43,.14-.67,.16,.19,.06,.29,.21,.29,.43Zm-2.68-1.95c-.17,.82,.2,1.31,1.1,1.47,.46,.08,.89,.1,1.29,.05-.09-.03-.19-.05-.32-.05-.41,0-1.1-.49-2.07-1.47Zm-8.55-4.88c-.33,.65-.36,1.3-.12,1.95,.25,.65,1.18,.16,2.81-1.46-.65,0-1.55-.16-2.69-.49Zm1.71,8.3c.16,.98-.28,1.38-1.34,1.22-1.06-.16-1.18,.33-.37,1.46,0-.32,.16-.56,.49-.73,.33-.16,.65-.36,.98-.61,.32-.24,.57-.45,.73-.61,.16-.16,0-.4-.49-.73Zm12.82-3.54c-.57,.08-1.18-.04-1.83-.37-.26,.51-.62,1.13-1.09,1.85,.12-.03,.24-.08,.36-.14,.64-.16,1.46-.16,2.44,0,.97,.17,1.62-.16,1.95-.98-.65-.32-1.26-.44-1.83-.36Zm-3.3,2.07c.14-.2,.27-.4,.38-.59-.21,.08-.43,.14-.67,.16,.19,.06,.29,.21,.29,.43Zm-2.68-1.95c-.17,.82,.2,1.31,1.1,1.47,.46,.08,.89,.1,1.29,.05-.09-.03-.19-.05-.32-.05-.41,0-1.1-.49-2.07-1.47Zm-6.84,3.42c.16,.98-.28,1.38-1.34,1.22-1.06-.16-1.18,.33-.37,1.46,0-.32,.16-.56,.49-.73,.33-.16,.65-.36,.98-.61,.32-.24,.57-.45,.73-.61,.16-.16,0-.4-.49-.73Zm-1.71-8.3c-.33,.65-.36,1.3-.12,1.95,.25,.65,1.18,.16,2.81-1.46-.65,0-1.55-.16-2.69-.49Zm-58.35,12.2c-.16,.49-.36,.94-.61,1.35-.24,.41-.36,1.02-.36,1.83,.65-.16,1.01-.61,1.1-1.34,.08-.74,.36-1.26,.85-1.59l-.98-.25Zm-1.3,15.95s0,.01-.01,.02c.01-.01,.01-.02,.02-.02h-.01Zm-.16,1.14c-.1-.46-.07-.81,.08-1.03-.45,.59-.48,.93-.08,1.03Zm-2.93-11.71c.81,.32,1.34,.24,1.59-.25,.24-.49,.69-.73,1.34-.73v-2.44c-1.14,.33-2.12,1.46-2.93,3.42Zm-1.59,14.03c-.41-.24-.61-.69-.61-1.34-.49,0-.73,.21-.73,.61s-.08,1.18-.24,2.32c-.33,.16-.74,.49-1.23,.98-.48,.49-.97,.65-1.46,.49,.49,.16,.93,.32,1.34,.48,.41,.17,1.43-.4,3.05-1.71,.33-.97,.29-1.58-.12-1.83Zm-4.27,4.89c-.49,.08-.57,.61-.24,1.58,.64-.16,1.09-.44,1.34-.85,.24-.41,.52-.86,.85-1.34-.81,.32-1.46,.53-1.95,.61Zm10.25-24.3c-.16,.49-.36,.94-.61,1.35-.24,.41-.36,1.02-.36,1.83,.65-.16,1.01-.61,1.1-1.34,.08-.74,.36-1.26,.85-1.59l-.98-.25Zm-4.39,5.38c.81,.32,1.34,.24,1.59-.25,.24-.49,.69-.73,1.34-.73v-2.44c-1.14,.33-2.12,1.46-2.93,3.42Zm3.09,10.57s0,.01-.01,.02c.01-.01,.01-.02,.02-.02h-.01Zm-.16,1.14c-.1-.46-.07-.81,.08-1.03-.45,.59-.48,.93-.08,1.03Zm-5.13,.98c-.49,0-.73,.21-.73,.61s-.08,1.18-.24,2.32c-.33,.16-.74,.49-1.23,.98-.48,.49-.97,.65-1.46,.49,.49,.16,.93,.32,1.34,.48,.41,.17,1.43-.4,3.05-1.71,.33-.97,.29-1.58-.12-1.83-.41-.24-.61-.69-.61-1.34Zm-3.9,7.81c.64-.16,1.09-.44,1.34-.85,.24-.41,.52-.86,.85-1.34-.81,.32-1.46,.53-1.95,.61-.49,.08-.57,.61-.24,1.58Zm96.55,13.07c.08-.25,.13-.78,.13-1.59,.64-1.3,.93-2.81,.85-4.52-.08-1.71-.45-3.21-1.1-4.51-.65-1.31-1.63-2.24-2.93-2.81s-2.85-.37-4.64,.61c-1.63,1.46-2.48,3.09-2.56,4.88-.08,1.79-.12,3.91-.12,6.35,.16,3.09-.13,6.22-.86,9.4-.73,3.17-1.18,6.31-1.34,9.4-2.61,2.6-5.09,5.25-7.45,7.93-2.36,2.69-5.49,5.09-9.4,7.2-1.14,1.31-2.52,2.37-4.15,3.18-1.63,.81-3.58,.89-5.86,.24-.97,.65-2.11,.86-3.41,.61-1.31-.24-2.45-.28-3.42-.12-2.28-1.62-4.88-2.93-7.81-3.91-2.93-.97-4.89-2.84-5.86-5.61-.98-.65-1.75-1.47-2.32-2.44-.58-.98-1.27-2.04-2.08-3.18-.33-.48-.33-.81,0-.97,.33-.16,.81-.74,1.47-1.71-.17-1.63,.65-3.34,2.44-5.13-.82-.49-1.51-.98-2.08-1.46-.57-.49-1.75,.16-3.54,1.95-1.14-.16-1.83-.57-2.07-1.22-.25-.65-.29-1.34-.12-2.08,.16-.73,.48-1.46,.97-2.19,.49-.74,1.55-1.59,3.18-2.57-.66-.49-.74-.97-.25-1.46,.49-.49,.33-1.38-.49-2.69-.32,1.31-1.09,1.96-2.32,1.96s-2.48-.08-3.78-.25c-.33-1.62-.37-3.05-.12-4.27,.24-1.22,.52-2.24,.85-3.05-.81-.33-1.34-.94-1.58-1.83-.25-.9,.03-2.16,.85-3.79-.16-.49-.21-1.06-.12-1.71,.08-.65,.28-1.13,.61-1.46-.98,.33-1.75-.2-2.32-1.59-.57-1.38-.45-2.64,.37-3.78-.82-1.14-1.1-2.24-.86-3.3s.73-2.03,1.47-2.93c.73-.89,1.54-1.71,2.44-2.44,.89-.73,1.58-1.5,2.07-2.32-.81,.16-1.71,.49-2.68,.98-.98,.49-2.12,.89-3.42,1.22,.49-1.14,.73-2.36,.73-3.66s-.04-2.61-.12-3.91c-.08-1.3-.08-2.52,0-3.66,.08-1.14,.53-2.2,1.34-3.18,.49-.65,1.22-.97,2.2-.97s1.62-.65,1.95-1.96c-1.3-.32-2.2-.4-2.68-.24-.49,.16-1.22,.41-2.2,.73,.32-1.13,.45-2.36,.37-3.66-.09-1.3,.03-2.6,.36-3.91,.33-1.13,1.1-2.27,2.32-3.41,1.22-1.14,1.5-2.53,.86-4.15,.81-.33,1.22-.82,1.22-1.47s-.09-1.3-.25-1.95c1.14-.82,2.04-1.71,2.69-2.69,.65-.97,.81-2.28,.49-3.9,1.3-3.58,3.74-6.68,7.32-9.28,3.58-2.6,8.38-3.91,14.4-3.91,1.79,.33,3.62,.61,5.5,.86,1.87,.24,3.21,1.01,4.03,2.32,.16,.81,.4,1.5,.73,2.07,.32,.57,.98,.78,1.95,.61,.49,.98,1.14,1.92,1.95,2.81,.82,.9,1.59,1.83,2.32,2.81,.74,.97,1.22,2.03,1.47,3.17,.24,1.14,.12,2.53-.37,4.15-2.93,1.95-5.73,3.87-8.42,5.74s-4.44,4.84-5.25,8.91c-.65,0-.98,.33-.98,.98s-.16,1.22-.48,1.7c-.82-.16-1.51,.49-2.08,1.96-.57,1.46-.69,2.6-.37,3.42,2.12-.33,3.34,.04,3.67,1.09,.32,1.06,.4,2.32,.24,3.79,1.3,.65,2.48,1.22,3.54,1.71s1.75,1.38,2.08,2.68c1.62,1.31,3.54,1.8,5.73,1.47,2.2-.33,4.76-.41,7.69-.25,.49-.32,1.18-.48,2.08-.48s1.75,.08,2.56,.24c.16-1.3,1.02-2.32,2.57-3.05,1.54-.73,2.48-1.83,2.8-3.3,1.47-.32,2.36-1.18,2.69-2.56,.32-1.38,.81-3.3,1.46-5.74-.16-.98-.32-1.95-.48-2.93-.17-.98,.08-1.87,.73-2.68-.49-.82-1.14-1.79-1.96-2.93-.81-1.14-.97-2.36-.48-3.67-.98-1.13-1.67-2.48-2.08-4.02-.41-1.55-1.1-3.3-2.07-5.25-1.14-2.28-2.57-4.28-4.28-5.98-1.71-1.71-3.58-3.3-5.61-4.77-2.04-1.46-4.11-2.88-6.23-4.27-2.11-1.38-4.15-2.89-6.1-4.51-3.09-.16-6.07-.08-8.91,.24-2.85,.33-5.82,.33-8.91,0-2.28,.82-4.81,1.79-7.57,2.93-2.77,1.14-5.78,2.36-9.03,3.66-1.47,.98-2.77,2.12-3.91,3.42-1.14,1.3-2.77,2.12-4.88,2.44-.98,.98-1.96,2.12-2.93,3.42-.98,1.3-2.04,2.36-3.18,3.17-1.14,.82-2.28,1.47-3.41,1.96-1.15,.48-2.2,1.14-3.18,1.95-.82,.65-1.43,1.43-1.83,2.32-.41,.89-.85,1.67-1.34,2.32-.65,.81-1.27,1.46-1.83,1.95-.58,.49-1.1,1.14-1.59,1.95-.98,1.8-1.92,3.71-2.81,5.74-.89,2.04-1.99,4.52-3.29,7.45-1.8,1.95-2.53,3.99-2.2,6.1,.32,.82,.36,1.51,.12,2.08-.24,.57-.57,1.09-.98,1.58-.4,.49-.81,1.02-1.22,1.59-.4,.57-.61,1.18-.61,1.83-.16,.49-.08,.94,.25,1.34,.32,.41,.49,.86,.49,1.35,.48,1.63,.61,3.38,.36,5.25-.24,1.87-.45,3.54-.61,5,.81,1.14,1.26,2.48,1.34,4.03s.29,3.21,.61,5c.16,2.12,.37,4.07,.61,5.86,.25,1.8,.21,3.75-.12,5.86,.82,.17,1.26,.61,1.35,1.35,.08,.73,.69,1.18,1.83,1.34,.32,2.28,1.26,4.19,2.8,5.74,1.55,1.54,3.14,4.11,4.77,7.69,1.3,.81,2.52,1.75,3.66,2.8,1.13,1.06,2.03,2.24,2.68,3.54,1.3,.33,2.44,.94,3.42,1.83,.98,.9,2.03,1.76,3.17,2.57,.82-.33,1.39-.2,1.71,.36,.33,.58,.74,1.02,1.22,1.35,.33,.33,.77,.45,1.35,.36,.57-.08,1.1,.05,1.58,.37,.65,.33,1.14,.69,1.47,1.1,.32,.41,.81,.77,1.46,1.1,.65,.32,1.35,.65,2.08,.97,.73,.33,1.42,.57,2.07,.74,.98,.32,1.63,.56,1.96,.73,.32,.16,1.71,.57,4.15,1.22,.65,.16,1.42,.28,2.32,.36,.89,.08,1.66-.04,2.32-.36,1.3,.81,2.84,1.22,4.63,1.22,1.47,.16,3.06-.08,4.77-.73,1.7-.66,3.86-1.06,6.47-1.22,2.76,.64,5.2,.48,7.32-.49,2.11-.98,4.31-1.87,6.59-2.69,.81-.81,1.71-1.54,2.69-2.19,.97-.65,1.79-1.63,2.44-2.93,.97-.49,2.03-1.14,3.17-1.96,1.14-.81,1.87-1.62,2.2-2.44,.49,.17,.81,.08,.98-.24,.16-.33,.48-1.3,.97-2.93,2.6-.33,4.44-1.59,5.5-3.79,1.05-2.19,2.15-4.59,3.29-7.2,1.14-.32,1.83-.93,2.08-1.83,.24-.89,.85-1.75,1.83-2.56,.97-.49,1.26-1.38,.85-2.69-.41-1.3-.04-2.03,1.1-2.2-.16-.48-.37-.85-.61-1.1-.24-.24,.12-.85,1.1-1.83-.33-.48-.45-.85-.37-1.09Zm-29.9-55.3c.48,.33,1.09,.53,1.83,.61,.73,.08,1.26,.28,1.58,.61,0,.16-.2,.28-.61,.36-.4,.09-.85,.09-1.34,0-.49-.08-.9-.24-1.22-.48-.33-.25-.41-.61-.24-1.1Zm-4.89,13.67c0-1.14,.29-1.99,.86-2.56s1.91-1.51,4.03-2.81c.16-.81,.4-1.5,.73-2.08,.32-.57,.81-1.66,1.46-3.29,.49,.33,1.06,.49,1.71,.49s1.55,.32,2.69,.97c-.33,.17-.45,.57-.37,1.22,.08,.65-.45,.98-1.59,.98-.32,.33-.36,.77-.12,1.34,.25,.57-.36,1.26-1.83,2.08-1.79,.16-3.21,.73-4.27,1.71-1.06,.97-2.16,1.62-3.3,1.95Zm24.66-10.74c0,.49-.12,.85-.37,1.1-.24,.24-.57,.4-.97,.48-.41,.09-.73,.25-.98,.49-.24,.25-.36,.7-.36,1.34-.98-.16-2-.28-3.06-.36-1.06-.08-1.58,.53-1.58,1.83,.32,.33,.69,.24,1.1-.24,.4-.49,.93-.74,1.58-.74,.16,.49,.53,.82,1.1,.98s1.1,.41,1.59,.73c.32,.17,.49,.04,.49-.36s.73-.69,2.19-.86l-1.71,1.71c.33,.49,.65,.94,.98,1.34,.33,.41,.41,1.02,.25,1.83-.82,.17-1.55,.53-2.2,1.1-.65,.58-1.31,1.19-1.96,1.83-.65,.66-1.26,1.19-1.83,1.59-.57,.41-2.07,.7-4.51,.86-.49-.98-.49-1.63,0-1.96,.49-.32,.73-.97,.73-1.95,.81,.33,1.26,.41,1.34,.24,.08-.16,.53-.4,1.35-.73-.33-.65-.66-1.06-.98-1.22-.33-.16-.57-.57-.73-1.22-.49,.33-.94,.65-1.35,.98-.4,.32-.53,1.06-.36,2.19-.49,.33-1.02,.58-1.59,.74-.57,.16-.85,.97-.85,2.44-.82-.98-1.88-1.06-3.18-.25-1.3,.82-2.77,1.71-4.39,2.69-.49-.65-.57-1.3-.25-1.95,.33-.65,.25-1.96-.24-3.91-.16-.65,.16-1.22,.98-1.71,.81-.49,1.46-.4,1.95,.24,.81-.32,1.59-.61,2.32-.85,.73-.24,1.75-.28,3.05-.12-1.46-.81-1.95-1.75-1.46-2.81,.48-1.06,1.22-1.91,2.19-2.56,.33-.16,.53-.13,.61,.12,.08,.24,.69-.28,1.83-1.59,.82,.33,1.47,.29,1.96-.12,.49-.4,.73-1.26,.73-2.56,.98,.81,1.83,.89,2.56,.24,.74-.65,2.08-.32,4.03,.98Zm-9.03-17.09c.65,.33,1.05,.89,1.22,1.71-.49,.32-.9,.65-1.22,.97-.33,.33-.65,.66-.98,.98-.33-.81-.49-1.63-.49-2.44s-.16-1.63-.49-2.44c.65,.48,1.31,.89,1.96,1.22Zm-1.34,11.35c1.86-1.71,4.18-3.13,6.95-4.27,.16,.65,.41,1.79,.74,3.42-.49,0-.78,.12-.86,.36-.08,.25-.2,.94-.37,2.08-.65,.48-1.62,.65-2.92,.48-1.31-.16-2.45,.41-3.42,1.71-.82,.33-1.35,.53-1.59,.61-.24,.09-.69,.78-1.34,2.08-.49,0-1.39-.4-2.69-1.22,1.79-1.79,3.62-3.54,5.5-5.25Zm-52.37,72.88l-.49,1.95c-.49,0-.86,.12-1.1,.37-.24,.24-.77,.28-1.59,.12,0-.82,.33-1.35,.98-1.59,.65-.24,1.38-.53,2.2-.85Zm-16.12-20.76c.33-.32,.82-.48,1.47-.48s.89-.41,.73-1.23c.65,.33,1.18,.33,1.59,0,.4-.32,.77-1.13,1.1-2.44,.48,.49,.85,.66,1.1,.49,.24-.16,.48-.4,.73-.73,.24-.33,.52-.69,.85-1.1,.33-.4,.33-.85,0-1.34,.49,0,1.14-.16,1.96-.49,.81-.32,1.46-.73,1.95-1.22,.97,1.3,.85,2.24-.37,2.81-1.22,.57-1.67,1.26-1.34,2.07-.82,0-1.43,.21-1.83,.61s-.78,.82-1.1,1.22c-.33,.41-.73,.78-1.22,1.1-.49,.33-1.47,.82-2.93,1.47-.16-.49-.49-.65-.98-.49s-1.06,.08-1.71-.25Zm.98,2.2c-.33,.33-.82,.65-1.46,.98-.66,.33-1.23,.33-1.71,0,0-.81,.4-1.35,1.22-1.59,.81-.24,1.46-.04,1.95,.61Zm8.06-11.72c-.49,0-.94,.04-1.35,.12-.4,.09-1.01-.36-1.83-1.34,.49,0,.94-.16,1.35-.49,.4-.32,.81-.65,1.22-.97,.4-.33,.81-.49,1.22-.49s.85,.24,1.34,.73c-.33,.49-.77,.82-1.34,.98-.57,.16-.78,.65-.61,1.46Zm-6.23-12.45c-.73,.49-1.51,.57-2.32,.25,.33-1.31,1.06-2.16,2.2-2.57,1.14-.4,1.87-1.75,2.2-4.03,.32,0,.81-.03,1.46-.12,.65-.08,1.14,.04,1.47,.37,1.13,0,2.52-.9,4.15-2.69,.32,1.14,.2,2.36-.37,3.66-.57,1.31-1.67,2.61-3.3,3.91-.32,.49-.85,.9-1.58,1.22-.73,.33-1.51-.24-2.32-1.71-.33,.65-.86,1.22-1.59,1.71Zm.12,3.66c0,.66-.28,1.02-.85,1.1-.16,.03-.3,.08-.41,.17,.28-.34,.71-.77,1.26-1.27Zm1.96,23.93c.64-.33,.81-1.3,.48-2.93,.49-.32,1.35-.41,2.57-.24,1.22,.16,1.59-.41,1.1-1.71,.81,.16,1.46,0,1.95-.49,.49-.49,1.14-.49,1.95,0-.16,1.3-.89,2.16-2.19,2.56-1.31,.41-2.53,1.75-3.67,4.03-.48,.16-.97,.33-1.46,.49-.49,.16-1.22,0-2.2-.49,.33-.49,.81-.89,1.47-1.22Zm2.68,5.86c2.77-.33,4.88-1.3,6.35-2.93,.49,1.3,.37,2.28-.37,2.93-.73,.65-1.42,1.46-2.07,2.44-.33,.33-.49,.85-.49,1.59s-.16,1.26-.49,1.58c-.81,0-1.42-.08-1.83-.24-.41-.16-1.02-.16-1.83,0-.33,.82-.65,1.06-.98,.73-.33-.32-1.14-.08-2.44,.73,.33-1.3,1.18-2.48,2.57-3.54,1.38-1.05,1.91-2.15,1.58-3.29Zm11.23-73.98c-.16,1.14-.81,2.12-1.95,2.93-1.14,.82-2.2,1.47-3.17,1.96,.81-.82,1.66-1.63,2.56-2.44,.89-.82,1.75-1.63,2.56-2.45Zm-3.66-1.22c.16,1.31-.65,1.8-2.44,1.47,.16-1.14,.98-1.63,2.44-1.47Zm-4.88,3.91c.49-.81,1.13-1.47,1.95-1.95,.65,.81,.41,1.63-.73,2.44-1.14,.81-2.12,1.38-2.93,1.71,.65-.65,1.22-1.38,1.71-2.2Zm-7.08,6.47c.32-.57,.89-.86,1.71-.86,.48-1.95,1.46-3.01,2.93-3.17-.33,1.31-1.14,2.4-2.45,3.3-1.3,.89-2.36,1.58-3.17,2.07,.33-.32,.65-.77,.98-1.34Zm-7.69,9.64c.24-.65,.57-1.26,.97-1.83,.41-.57,.86-.93,1.35-1.1,.48-.16,.97,0,1.46,.49-.82,.65-1.51,1.26-2.07,1.83-.58,.57-1.27,1.18-2.08,1.83,0-.16,.12-.57,.37-1.22Zm7.81-1.95c3.66-3.09,7.93-5.62,12.82-7.57-.66,2.12-1.96,3.54-3.91,4.27-1.95,.74-3.42,2.08-4.39,4.03-.49,.17-.98,.37-1.47,.61-.49,.25-1.46,.86-2.93,1.83-.33,.49-.61,.9-.85,1.22-.25,.33-.45,.82-.61,1.47-.82-.33-1.43-.08-1.83,.73-.41,.82-1.27,1.55-2.57,2.2-.97-.49-1.79-.33-2.44,.49-.65,.81-1.46,1.06-2.44,.73,3.42-3.58,6.96-6.92,10.62-10.01Zm-14.77,23.68c.16-.49,.32-.89,.49-1.22-.49-1.3-.37-2.15,.36-2.56,.74-.41,.53-.69-.61-.86,.33-.65,.86-1.22,1.59-1.71,.73-.48,1.42-.97,2.08-1.46,.32-.33,.69-.57,1.09-.73,.41-.16,.77-.49,1.1-.98,.65-.49,1.1-1.18,1.35-2.08,.24-.89,.61-1.5,1.09-1.83,.65-.48,1.51-.77,2.57-.85,1.05-.08,1.66-.61,1.83-1.59,1.62-.65,3.09-1.95,4.39-3.9,1.79-.33,3.22-.98,4.28-1.96,1.05-.97,2.31-1.79,3.78-2.44,.16,2.12-.21,3.58-1.1,4.4-.9,.81-1.43,2.03-1.59,3.66-.32-.49-.61-.69-.85-.61s-.49,.24-.73,.49c-.25,.24-.53,.48-.86,.73-.33,.24-.73,.2-1.22-.12,.65,.97,1.34,1.18,2.08,.61,.73-.57,1.58-.86,2.56-.86,0,2.28-1.1,3.95-3.3,5.01-2.19,1.06-3.86,2.64-5,4.76-1.14,0-1.95,1.06-2.44,3.17-.33-.32-.82-.61-1.47-.85-.65-.25-1.14,.2-1.46,1.34-1.63,.33-2.48,1.06-2.56,2.2-.09,1.14-.94,1.87-2.57,2.19,.16,.49,.53,.78,1.1,.86,.57,.08,.04,.77-1.59,2.07-.16,.82-.77,1.19-1.83,1.1-1.06-.08-1.83-.69-2.32-1.83,1.14-.65,2.2-1.38,3.18-2.2,.97-.81,2.44-2.35,4.39-4.63,0-1.63,.41-2.53,1.22-2.69-.33-.32-.73-.37-1.22-.12-.49,.24-1.3,.94-2.44,2.07,0,.33,.04,.49,.12,.49s-.61,.65-2.07,1.95c0,.82-.41,1.27-1.22,1.35-.82,.08-1.63,.45-2.45,1.1,0-.49,.09-.98,.25-1.47Zm-1.22,13.92c1.3-1.79,2.64-3.21,4.03-4.28,1.38-1.05,2.96-2.07,4.76-3.05,.49,.49,.85,.58,1.1,.25,.24-.33,1.17,0,2.8,.97-.32-.32-.73-.81-1.22-1.46-.49-.65-.65-1.3-.49-1.95,.43,0,1.54,.18,3.34,.56,.01,.01,0,.01-.01,.02,.01-.01,.01-.02,.02-.02,.26,.05,.53,.11,.81,.17,1.13,0,1.95-.57,2.44-1.71,.48-1.14,1.22-1.55,2.19-1.22-.16-.49-.04-.81,.37-.98,.4-.16,.89-.32,1.46-.49,.57-.16,1.1-.32,1.59-.48,.49-.16,.89-.41,1.22-.74,.49,2.12-.04,3.79-1.58,5.01-1.55,1.22-2.98,1.99-4.28,2.32l-1.46,2.93c-.33,0-.57,.16-.73,.48-.17,.33-.9,.74-2.2,1.23-.17,.16-.73,.97-1.71,2.44-.82,.33-1.63,.65-2.44,.97-.82,.33-1.71,0-2.69-.97-.49,.16-.65,.36-.49,.61,.16,.24-.57,.45-2.19,.61-.82-.33-1.59-.53-2.32-.61s-1.51-.28-2.32-.61Zm2.93,6.34c.65-.16,.65-.81,0-1.95,.81,.82,1.54,.86,2.2,.12,.64-.73,1.54-.93,2.68-.61-.33,.49-.77,.74-1.34,.74s-.7,.48-.37,1.46c-.97,0-1.71,.24-2.2,.73-.48,.49-1.14,.82-1.95,.98,0-.81,.33-1.3,.98-1.47Zm-.25,5.86c.49-.16,.9-.36,1.22-.61,.33-.24,1.39,.21,3.18,1.35-.65,0-1.26,.16-1.83,.48-.57,.33-1.43-.08-2.57-1.22Zm6.11,15.87c-.82-1.3-1.55-2.6-2.2-3.9-.65-1.3-1.22-2.69-1.71-4.15,.65-.98,1.38-1.87,2.2-2.69s1.87-.81,3.17,0c-.49,.17-.97,.41-1.46,.73-.49,.33-1.31,1.31-2.44,2.93,0,.98,.28,1.55,.85,1.71,.57,.17,1.26,.41,2.08,.73,.64-.32,1.58-.73,2.8-1.22,1.22-.48,1.59-1.05,1.1-1.71,.65-.32,1.87-.97,3.66-1.95,.82,.17,1.38-.04,1.71-.61,.33-.57,.65-1.01,.98-1.34,0,.82-.41,1.59-1.22,2.32-.82,.73-1.14,1.75-.98,3.05-.81,0-1.34,.12-1.58,.37-.25,.24-.78,.69-1.59,1.34-.33,.98-.98,1.91-1.95,2.81-.98,.89-2.12,1.42-3.42,1.58Zm18.06,12.7c-.16,.65-.32,1.55-.48,2.68-3.1-.81-5.58-2.19-7.45-4.15-1.87-1.95-3.87-3.9-5.98-5.86,.65-.64,.97-1.62,.97-2.93,0-.16,1.06-.4,3.18-.73,.32-.32,.44-.57,.36-.73s.45-.65,1.59-1.47c1.63,.17,2.89-.4,3.79-1.7,.89-1.3,2.23-2.12,4.02-2.45,0,1.15-.28,2-.85,2.57s-1.18,1.06-1.83,1.46c-.65,.41-1.26,.86-1.83,1.35-.57,.48-1.43,1.87-2.57,4.15-1.63,0-2.28,1.06-1.95,3.17,.16,.98,.73,1.59,1.71,1.83,.98,.25,2.03,.21,3.17-.12,1.14-.33,2.16-.86,3.06-1.59,.89-.73,1.42-1.5,1.58-2.32,.81,.17,1.47-.12,1.96-.85,.48-.73,1.22-.77,2.19-.12,0,.81-.12,1.46-.36,1.95-.25,.49-.58,.94-.98,1.34-.41,.41-.77,.86-1.1,1.34-.33,.49-1.06,1.55-2.2,3.18Zm-2.68-7.57c-.65,1.14-1.55,1.63-2.69,1.47-.16-.82,.04-1.26,.61-1.35,.57-.08,1.26-.12,2.08-.12Zm15.38,16.72c-1.79-.24-3.34-1.01-4.64-2.32-1.3,.33-2.56,.13-3.78-.61-1.22-.73-2.24-1.5-3.06-2.32,2.12,.49,3.7,.37,4.77-.36,1.05-.73,2.39-1.26,4.02-1.59,1.3,.98,1.55,2.53,.74,4.64,.16,.33,.36,.33,.61,0,.24-.32,.69,.33,1.34,1.95,.98-.81,2.11-.93,3.42-.36,1.3,.57,2.19,1.26,2.68,2.07-2.28-.49-4.31-.85-6.1-1.1Zm58.23-35.15c-.58,1.38-.86,2.65-.86,3.78-.65-.16-.97-.57-.97-1.22s.12-1.34,.36-2.07c.25-.74,.53-1.43,.86-2.08,.32-.65,.56-1.22,.73-1.71,.49,.82,.45,1.92-.12,3.3Zm-9.4-45.78c.97,.17,1.62-.16,1.95-.98-.65-.32-1.26-.44-1.83-.36-.57,.08-1.18-.04-1.83-.37-.26,.51-.62,1.13-1.09,1.85,.12-.03,.24-.08,.36-.14,.64-.16,1.46-.16,2.44,0Zm-3.18,.73c.14-.2,.27-.4,.38-.59-.21,.08-.43,.14-.67,.16,.19,.06,.29,.21,.29,.43Zm-1.58-.48c.46,.08,.89,.1,1.29,.05-.09-.03-.19-.05-.32-.05-.41,0-1.1-.49-2.07-1.47-.17,.82,.2,1.31,1.1,1.47Zm-7.94,1.95c.16,.98-.28,1.38-1.34,1.22-1.06-.16-1.18,.33-.37,1.46,0-.32,.16-.56,.49-.73,.33-.16,.65-.36,.98-.61,.32-.24,.57-.45,.73-.61,.16-.16,0-.4-.49-.73Zm-1.71-8.3c-.33,.65-.36,1.3-.12,1.95,.25,.65,1.18,.16,2.81-1.46-.65,0-1.55-.16-2.69-.49Zm-58.22,14.04c.08-.74,.36-1.26,.85-1.59l-.98-.25c-.16,.49-.36,.94-.61,1.35-.24,.41-.36,1.02-.36,1.83,.65-.16,1.01-.61,1.1-1.34Zm-2.93,3.29c.24-.49,.69-.73,1.34-.73v-2.44c-1.14,.33-2.12,1.46-2.93,3.42,.81,.32,1.34,.24,1.59-.25Zm1.34,11.96c-.1-.46-.07-.81,.08-1.03-.45,.59-.48,.93-.08,1.03Zm-4.4,4.15c.33-.97,.29-1.58-.12-1.83-.41-.24-.61-.69-.61-1.34-.49,0-.73,.21-.73,.61s-.08,1.18-.24,2.32c-.33,.16-.74,.49-1.23,.98-.48,.49-.97,.65-1.46,.49,.49,.16,.93,.32,1.34,.48,.41,.17,1.43-.4,3.05-1.71Zm-3.29,3.79c.24-.41,.52-.86,.85-1.34-.81,.32-1.46,.53-1.95,.61-.49,.08-.57,.61-.24,1.58,.64-.16,1.09-.44,1.34-.85Z"/>
    </g>
    <text class="cls-2" transform="translate(2.34 233.76)"><tspan x="0" y="0">Life</tspan></text>
  </g>
</svg>